<?xml version="1.0" encoding="UTF-8" standalone="no"?>
<!-- Created with Inkscape (http://www.inkscape.org/) -->

<svg
   version="1.1"
   id="svg1"
   width="319.65"
   height="112.20"
   viewBox="59.5856 54.3986 319.6491 112.1998"
   sodipodi:docname="bocconi.eps"
   xmlns:inkscape="http://www.inkscape.org/namespaces/inkscape"
   xmlns:sodipodi="http://sodipodi.sourceforge.net/DTD/sodipodi-0.dtd"
   xmlns="http://www.w3.org/2000/svg"
   xmlns:svg="http://www.w3.org/2000/svg">
  <defs
     id="defs1" />
  <sodipodi:namedview
     id="namedview1"
     pagecolor="#ffffff"
     bordercolor="#000000"
     borderopacity="0.25"
     inkscape:showpageshadow="2"
     inkscape:pageopacity="0.0"
     inkscape:pagecheckerboard="0"
     inkscape:deskcolor="#d1d1d1">
    <inkscape:page
       x="0"
       y="0"
       inkscape:label="1"
       id="page1"
       width="438.88"
       height="220.36"
       margin="0"
       bleed="0" />
  </sodipodi:namedview>
  <g
     id="g1"
     inkscape:groupmode="layer"
     inkscape:label="1">
    <g
       id="group-R5">
      <path
         id="path2"
         d="m 1612.24,1087.56 v 99.5 h 30.37 v -98.26 c 0,-32.1 16.55,-49.38 43.71,-49.38 26.9,0 43.44,16.29 43.44,48.14 v 99.5 h 30.37 v -98.02 c 0,-51.6 -29.13,-77.52 -74.31,-77.52 -44.93,0 -73.58,25.92 -73.58,76.04"
         style="fill:#ffffff;fill-opacity:1;fill-rule:nonzero;stroke:none"
         transform="matrix(0.13333333,0,0,-0.13333333,0,220.36)" />
      <path
         id="path3"
         d="m 1803.16,1144.59 h 29.87 v -20.24 c 8.4,12.34 20.5,22.96 40.75,22.96 29.37,0 46.41,-19.76 46.41,-50.12 v -82.96 h -29.87 v 74.07 c 0,20.25 -10.13,31.85 -27.9,31.85 -17.29,0 -29.39,-12.1 -29.39,-32.34 v -73.58 h -29.87 v 130.36"
         style="fill:#ffffff;fill-opacity:1;fill-rule:nonzero;stroke:none"
         transform="matrix(0.13333333,0,0,-0.13333333,0,220.36)" />
      <path
         id="path4"
         d="m 1960.74,1144.59 h 29.87 v -130.36 h -29.87 z m -1.23,48.39 h 32.1 v -28.39 h -32.1 v 28.39"
         style="fill:#ffffff;fill-opacity:1;fill-rule:nonzero;stroke:none"
         transform="matrix(0.13333333,0,0,-0.13333333,0,220.36)" />
      <path
         id="path5"
         d="m 2018.28,1144.59 h 32.1 l 35.06,-95.79 35.3,95.79 h 31.36 l -53.33,-131.34 h -26.92 l -53.57,131.34"
         style="fill:#ffffff;fill-opacity:1;fill-rule:nonzero;stroke:none"
         transform="matrix(0.13333333,0,0,-0.13333333,0,220.36)" />
      <path
         id="path6"
         d="m 2263.13,1088.55 c -1.97,19.25 -13.33,34.32 -33.08,34.32 -18.27,0 -31.11,-14.08 -33.82,-34.32 z m -96.53,-9.63 v 0.49 c 0,37.28 26.42,67.9 63.7,67.9 41.47,0 62.46,-32.59 62.46,-70.11 0,-2.72 -0.24,-5.43 -0.5,-8.4 h -95.79 c 3.22,-21.23 18.27,-33.09 37.53,-33.09 14.57,0 24.93,5.44 35.3,15.56 l 17.53,-15.56 c -12.34,-14.8 -29.37,-24.43 -53.33,-24.43 -37.77,0 -66.9,27.4 -66.9,67.64"
         style="fill:#ffffff;fill-opacity:1;fill-rule:nonzero;stroke:none"
         transform="matrix(0.13333333,0,0,-0.13333333,0,220.36)" />
      <path
         id="path7"
         d="m 2326.57,1144.59 h 29.87 v -29.38 c 8.16,19.5 23.22,32.84 46.17,31.85 v -31.6 h -1.72 c -26.18,0 -44.45,-17.03 -44.45,-51.6 v -49.63 h -29.87 v 130.36"
         style="fill:#ffffff;fill-opacity:1;fill-rule:nonzero;stroke:none"
         transform="matrix(0.13333333,0,0,-0.13333333,0,220.36)" />
      <path
         id="path8"
         d="m 2421.4,1031.27 13.33,20.24 c 14.09,-10.62 29.39,-16.05 42.72,-16.05 12.84,0 20.24,5.43 20.24,14.08 v 0.5 c 0,10.11 -13.83,13.57 -29.13,18.27 -19.26,5.43 -40.73,13.33 -40.73,38.26 v 0.5 c 0,24.68 20.49,39.74 46.41,39.74 16.29,0 34.07,-5.67 47.9,-14.81 l -11.85,-21.23 c -12.6,7.65 -25.93,12.34 -36.79,12.34 -11.61,0 -18.27,-5.43 -18.27,-13.08 v -0.49 c 0,-9.39 14.07,-13.34 29.38,-18.27 19.01,-5.93 40.49,-14.57 40.49,-38.03 v -0.49 c 0,-27.4 -21.24,-40.98 -48.39,-40.98 -18.52,0 -39.01,6.66 -55.31,19.5"
         style="fill:#ffffff;fill-opacity:1;fill-rule:nonzero;stroke:none"
         transform="matrix(0.13333333,0,0,-0.13333333,0,220.36)" />
      <path
         id="path9"
         d="m 2559.58,1144.59 h 29.87 v -130.36 h -29.87 z m -1.23,48.39 h 32.09 v -28.39 h -32.09 v 28.39"
         style="fill:#ffffff;fill-opacity:1;fill-rule:nonzero;stroke:none"
         transform="matrix(0.13333333,0,0,-0.13333333,0,220.36)" />
      <path
         id="path10"
         d="m 2636.33,1050.28 v 68.63 h -16.54 v 25.68 h 16.54 v 35.8 h 29.87 v -35.8 h 35.06 v -25.68 h -35.06 v -63.94 c 0,-11.6 5.93,-16.29 16.05,-16.29 6.66,0 12.59,1.48 18.52,4.45 v -24.45 c -7.41,-4.2 -15.8,-6.67 -26.92,-6.67 -21.97,0 -37.52,9.63 -37.52,38.27"
         style="fill:#ffffff;fill-opacity:1;fill-rule:nonzero;stroke:none"
         transform="matrix(0.13333333,0,0,-0.13333333,0,220.36)" />
      <path
         id="path11"
         d="m 2815.37,1068.8 c -7.66,2.97 -18.27,5.18 -29.87,5.18 -18.76,0 -29.88,-7.66 -29.88,-20.24 v -0.5 c 0,-12.35 11.12,-19.25 25.19,-19.25 19.74,0 34.56,11.1 34.56,27.4 z m -67.65,120.72 27.16,12.11 25.67,-40.49 h -22.46 z m 66.91,-175.29 v 16.05 c -8.89,-10.61 -22.46,-18.76 -42.22,-18.76 -24.69,0 -46.42,14.07 -46.42,40.25 v 0.48 c 0,28.89 22.47,42.72 52.84,42.72 15.8,0 25.92,-2.22 36.04,-5.43 v 2.46 c 0,18.03 -11.35,27.91 -32.09,27.91 -14.57,0 -25.43,-3.22 -37.28,-8.16 l -8.15,23.96 c 14.32,6.41 28.4,10.86 49.63,10.86 38.52,0 57.28,-20.25 57.28,-55.06 v -77.28 h -29.63"
         style="fill:#ffffff;fill-opacity:1;fill-rule:nonzero;stroke:none"
         transform="matrix(0.13333333,0,0,-0.13333333,0,220.36)" />
      <path
         id="path12"
         d="m 1695.2,785.145 c 20.74,0 33.33,8.144 33.33,23.699 v 0.492 c 0,14.566 -11.61,23.211 -35.55,23.211 h -48.15 v -47.402 z m -8.88,73.074 c 19.5,0 32.58,7.66 32.58,23.457 v 0.492 c 0,13.582 -10.87,21.969 -30.37,21.969 h -43.7 v -45.918 z m -71.36,72.832 h 77.53 c 19.74,0 35.3,-5.426 45.17,-15.313 7.66,-7.644 11.61,-17.027 11.61,-28.633 v -0.496 c 0,-20.73 -11.85,-31.847 -24.69,-38.515 20.24,-6.914 34.31,-18.516 34.31,-41.965 v -0.496 c 0,-30.86 -25.43,-47.403 -63.94,-47.403 h -79.99 v 172.821"
         style="fill:#ffffff;fill-opacity:1;fill-rule:nonzero;stroke:none"
         transform="matrix(0.13333333,0,0,-0.13333333,0,220.36)" />
      <path
         id="path13"
         d="m 1896.67,822.664 v 0.496 c 0,22.961 -16.55,41.973 -40,41.973 -23.95,0 -39.26,-18.77 -39.26,-41.473 v -0.5 c 0,-22.715 16.54,-41.972 39.76,-41.972 24.18,0 39.5,19.015 39.5,41.476 z m -109.13,0 v 0.496 c 0,37.278 29.63,68.145 69.63,68.145 39.99,0 69.37,-30.371 69.37,-67.645 v -0.5 c 0,-37.031 -29.63,-67.89 -69.87,-67.89 -39.75,0 -69.13,30.363 -69.13,67.394"
         style="fill:#ffffff;fill-opacity:1;fill-rule:nonzero;stroke:none"
         transform="matrix(0.13333333,0,0,-0.13333333,0,220.36)" />
      <path
         id="path14"
         d="m 1952.84,822.664 v 0.496 c 0,37.031 28.64,68.145 67.65,68.145 24.68,0 40,-9.137 52.1,-22.469 l -18.52,-20 c -9.14,9.629 -18.77,16.297 -33.83,16.297 -21.73,0 -37.53,-18.77 -37.53,-41.473 v -0.5 c 0,-23.199 16.06,-41.972 39.02,-41.972 14.07,0 24.44,6.671 33.81,16.3 l 18.03,-17.785 c -12.84,-14.316 -27.9,-24.433 -53.33,-24.433 -38.76,0 -67.4,30.363 -67.4,67.394"
         style="fill:#ffffff;fill-opacity:1;fill-rule:nonzero;stroke:none"
         transform="matrix(0.13333333,0,0,-0.13333333,0,220.36)" />
      <path
         id="path15"
         d="m 2093.25,822.664 v 0.496 c 0,37.031 28.64,68.145 67.65,68.145 24.68,0 40,-9.137 52.1,-22.469 l -18.52,-20 c -9.14,9.629 -18.77,16.297 -33.83,16.297 -21.73,0 -37.53,-18.77 -37.53,-41.473 v -0.5 c 0,-23.199 16.06,-41.972 39.02,-41.972 14.07,0 24.44,6.671 33.81,16.3 l 18.03,-17.785 c -12.84,-14.316 -27.9,-24.433 -53.33,-24.433 -38.76,0 -67.4,30.363 -67.4,67.394"
         style="fill:#ffffff;fill-opacity:1;fill-rule:nonzero;stroke:none"
         transform="matrix(0.13333333,0,0,-0.13333333,0,220.36)" />
      <path
         id="path16"
         d="m 2341.99,822.664 v 0.496 c 0,22.961 -16.54,41.973 -40,41.973 -23.95,0 -39.26,-18.77 -39.26,-41.473 v -0.5 c 0,-22.715 16.54,-41.972 39.76,-41.972 24.19,0 39.5,19.015 39.5,41.476 z m -109.13,0 v 0.496 c 0,37.278 29.63,68.145 69.63,68.145 39.99,0 69.37,-30.371 69.37,-67.645 v -0.5 c 0,-37.031 -29.63,-67.89 -69.87,-67.89 -39.75,0 -69.13,30.363 -69.13,67.394"
         style="fill:#ffffff;fill-opacity:1;fill-rule:nonzero;stroke:none"
         transform="matrix(0.13333333,0,0,-0.13333333,0,220.36)" />
      <path
         id="path17"
         d="m 2405.47,888.582 h 29.87 v -20.246 c 8.4,12.355 20.5,22.969 40.74,22.969 29.38,0 46.42,-19.754 46.42,-50.125 v -82.95 h -29.88 v 74.063 c 0,20.242 -10.12,31.855 -27.9,31.855 -17.28,0 -29.38,-12.101 -29.38,-32.343 V 758.23 h -29.87 v 130.352"
         style="fill:#ffffff;fill-opacity:1;fill-rule:nonzero;stroke:none"
         transform="matrix(0.13333333,0,0,-0.13333333,0,220.36)" />
      <path
         id="path18"
         d="m 2563.04,888.582 h 29.88 V 758.23 h -29.88 z m -1.23,48.398 h 32.1 v -28.398 h -32.1 v 28.398"
         style="fill:#ffffff;fill-opacity:1;fill-rule:nonzero;stroke:none"
         transform="matrix(0.13333333,0,0,-0.13333333,0,220.36)" />
      <path
         id="path19"
         d="m 1614.92,562.441 h 13.19 l 42.07,-63.011 42.06,63.011 h 13.2 V 446.98 h -13.03 v 93.532 l -42.07,-61.864 h -0.65 l -42.07,61.692 v -93.36 h -12.7 v 115.461"
         style="fill:#ffffff;fill-opacity:1;fill-rule:nonzero;stroke:none"
         transform="matrix(0.13333333,0,0,-0.13333333,0,220.36)" />
      <path
         id="path20"
         d="m 1761.71,562.441 h 13.03 V 446.98 h -13.03 v 115.461"
         style="fill:#ffffff;fill-opacity:1;fill-rule:nonzero;stroke:none"
         transform="matrix(0.13333333,0,0,-0.13333333,0,220.36)" />
      <path
         id="path21"
         d="m 1810.64,562.441 h 13.04 V 459.02 h 64.98 v -12.04 h -78.02 v 115.461"
         style="fill:#ffffff;fill-opacity:1;fill-rule:nonzero;stroke:none"
         transform="matrix(0.13333333,0,0,-0.13333333,0,220.36)" />
      <path
         id="path22"
         d="m 1992.94,489.211 -26.23,58.879 -26.4,-58.879 z m -32.17,74.059 h 12.21 l 52.61,-116.29 h -14.02 l -13.53,30.52 h -62.84 l -13.69,-30.52 h -13.36 l 52.62,116.29"
         style="fill:#ffffff;fill-opacity:1;fill-rule:nonzero;stroke:none"
         transform="matrix(0.13333333,0,0,-0.13333333,0,220.36)" />
      <path
         id="path23"
         d="m 2049.44,562.441 h 12.21 l 72.74,-92.531 v 92.531 h 12.7 V 446.98 h -10.39 l -74.55,94.68 v -94.68 h -12.71 v 115.461"
         style="fill:#ffffff;fill-opacity:1;fill-rule:nonzero;stroke:none"
         transform="matrix(0.13333333,0,0,-0.13333333,0,220.36)" />
      <path
         id="path24"
         d="m 2281.11,504.379 v 0.32 c 0,26.242 -19.13,47.68 -45.52,47.68 -26.39,0 -45.19,-21.109 -45.19,-47.34 v -0.34 c 0,-26.219 19.13,-47.66 45.52,-47.66 26.39,0 45.19,21.109 45.19,47.34 z m -104.24,0 v 0.32 c 0,31.84 23.92,59.723 59.05,59.723 35.13,0 58.72,-27.551 58.72,-59.383 v -0.34 c 0,-31.82 -23.92,-59.699 -59.05,-59.699 -35.13,0 -58.72,27.551 -58.72,59.379"
         style="fill:#ffffff;fill-opacity:1;fill-rule:nonzero;stroke:none"
         transform="matrix(0.13333333,0,0,-0.13333333,0,220.36)" />
      <path
         id="path25"
         d="m 1419.03,447 h -13 v 758.34 h 13 V 447"
         style="fill:#ffffff;fill-opacity:1;fill-rule:nonzero;stroke:none"
         transform="matrix(0.13333333,0,0,-0.13333333,0,220.36)" />
      <path
         id="path26"
         d="m 1013.36,772.473 c -0.38,-3.723 -24.29,-9.887 -88.59,-11.625 -88.551,-2.375 -165.891,5.047 -167.184,13.101 -0.566,1.809 3.629,4.903 8.062,8.164 10.008,7.371 25.129,18.504 28.653,41.028 2.433,15.597 15.941,31.355 37.246,43.66 -1.434,-4.606 -1.461,-7.852 -0.547,-14.465 0.996,-7.246 6.836,-21.805 16.422,-33.238 3.578,-4.035 5.773,-20.539 6.117,-21.356 l 1.27,3.922 c -0.09,0.215 0.605,13.695 -7.161,24.824 -6.929,9.934 -11.64,28.059 -11.121,35.395 0.078,1.156 -4.941,25.246 51.52,54.051 29.039,14.82 47.457,22.754 55.199,26.988 0.508,-8.906 -3.234,-20.606 -14.387,-32.274 l -22.468,-16.203 13.996,4.895 c 0.363,-0.543 0.586,-1.77 0.129,-3.59 -0.786,-3.086 -9.344,-13.824 -14.645,-16.633 -6.031,-3.183 -3.187,-3.738 -2.266,-6.445 1.829,-5.375 -9.062,-1.567 -12.027,-6.789 3.145,-4.879 -1.805,-7.813 -3.305,-8.016 -13.011,-1.758 -7.933,-7.996 -10.277,-13.933 -1.144,-2.887 -3.488,-4.18 -11.672,-7.668 -0.226,-0.094 10.012,1.226 13.309,5.519 2.527,3.285 6.027,8.418 9.164,10.16 4.07,2.262 6.621,9.41 17.242,15.68 6.797,4.008 1.746,7.488 16.375,17.77 7.086,4.968 6.59,12.753 6.203,14.695 7.844,6.121 12.219,10.019 15.75,18.051 1.781,0.691 25.598,17.589 38.121,26.32 0.114,-0.684 1.188,-4.238 0.223,-11.164 -1.117,-8.031 -3.129,-14.285 -21.203,-23.887 -1.473,-0.781 3.558,-0.418 4.008,-4.465 0.222,-2.007 -0.661,-10.047 -20.981,-18.527 0,0 6.141,-0.953 1.563,-9.156 -5.36,-9.598 -31.524,-14.211 -24.993,-14.063 19.418,0.449 0.227,-15.179 -13.167,-20.761 23.32,3.542 10.316,-9.583 -16.008,-22.274 l 28.726,13.344 c 8.481,4.246 3.364,11.207 5.43,12.504 3.5,3.574 7.441,5.742 8.637,10.047 1.109,4.011 0.3,5.418 0.879,6.25 3.367,1.101 8.625,1.882 14.746,12.054 1.597,2.664 2.453,6.7 1.882,9.082 8.356,2.918 19.653,10.981 20.438,18.825 0.449,4.46 -2.121,5.55 -1.785,6.14 5.328,3.899 9.199,9.156 13.39,16.184 1.993,3.34 3.571,6.918 5.36,11.386 0,0 9.492,9.219 10.047,9.598 5.8,4.02 21.14,13.988 32.15,20.981 2.9,-15.399 -16.63,-30.852 -32.373,-41.965 -3.797,-2.676 18.303,11.16 17.633,2.679 -1.7,-21.574 -32.141,-32.375 -32.141,-32.375 l 11.156,1.122 c 2.676,-7.821 -7.488,-13.047 -10.707,-15.625 -1.937,-1.551 -25.777,-14.055 -23.441,-13.176 17.188,6.476 10.711,-10.043 -17.418,-21.656 -10.629,-4.387 -3.715,-4.95 5.359,-2.231 11.161,3.352 -4.464,-11.609 -18.085,-15.398 12.214,1.593 24.039,5.234 33.625,16.601 5.761,-7.472 9.656,-15.035 11.324,-22.082 4.465,-18.894 18.398,-31.355 27.608,-39.598 4.56,-4.078 9.27,-8.292 8.99,-10.382 z m 18.61,-37.145 c -1.57,-1.941 -2.54,-4.316 -2.88,-7.019 -0.36,-2.825 1.25,-4.68 3.09,-5.918 -42.953,-5.86 -64.594,10.339 -68.633,13.781 0.019,0.172 0.055,0.348 0.078,0.523 l 10.328,9.875 c 0.152,-0.187 0.293,-0.312 0.449,-0.519 8.758,-11.192 35.238,-11.641 57.568,-10.723 z m -130.314,-23.73 c 0,0 9.899,-10.879 8.907,-14.336 -0.989,-3.465 -4.454,-2.965 -4.454,-2.965 0,0 -4.246,7.195 -8.906,11.863 -0.492,0.496 -28.691,-26.211 -28.691,-26.211 0,0 10.996,-8.867 8.258,-20.597 -5.528,-8.832 -12.059,-14.454 -18.676,-15.793 -4.317,-0.879 -8.274,0.242 -11.422,3.23 -5.371,5.109 -110.203,106.176 -110.555,109.145 -0.222,1.808 5.246,5.8 5.246,5.8 l 5.653,-2.265 c 11.367,-11.629 98.879,-101.16 102.812,-104.766 3.641,-3.344 10.219,-2.715 14.363,1.348 3.676,3.605 5.332,10.051 -1.074,17.328 -9.5,10.797 -71.734,73.199 -88.828,90.309 3.734,-0.723 7.879,-1.387 12.348,-1.981 12.715,-13.035 76.828,-77.305 76.828,-77.305 l 72.848,72.743 c 4.132,0.156 8.066,0.332 11.886,0.519 z m 77.719,-0.028 c 9.754,-0.898 18.973,-1.73 25.085,-3.398 20.96,-5.711 25.46,-15.266 26.31,-20.274 -7.02,4.004 -12.1,4.989 -15.85,3.094 -3.86,-1.941 -5.2,-6.492 -5.74,-11.211 -0.21,0.196 -0.43,0.391 -0.63,0.578 -5.44,5.028 -16.503,15.274 -33.882,15.274 -0.758,0 -1.531,-0.031 -2.309,-0.07 -22.539,-1.141 -37.691,4.875 -42.57,7.988 l 15.219,13.527 c 8.64,-3.164 21.707,-4.355 34.367,-5.508 z m -219.586,56.141 c 2.059,-0.887 4.613,-1.707 7.551,-2.469 l -0.172,-0.176 c 0.816,-0.82 82.18,-82.207 92.898,-94.386 3.903,-4.422 4.364,-8.7 1.278,-11.727 -2.563,-2.512 -6.742,-3.105 -8.762,-1.25 -3.644,3.34 -84.414,85.945 -100.867,102.781 z m 48.578,146.613 c 6.738,17.02 18.203,25.012 27.477,31.684 4.347,3.137 7.312,4.879 9.562,5.855 0.43,-19.433 -3.933,-26.183 -7.308,-30.258 -3.375,-4.082 -9.985,-10.687 -9.985,-10.687 0,0.027 7.075,2.043 11.813,6.461 2.113,1.973 0.144,-25.332 -9.699,-31.524 0,0 -5.512,-6.585 -2.176,-11 0.89,-1.179 2.363,-1.875 5.918,-1.562 -0.188,-0.445 -0.324,-0.809 -0.496,-1.227 l -0.196,0.368 c -11.531,-6.192 -21.078,-13.399 -28.273,-21.129 -5.313,6.5 -10.961,26.828 3.363,63.019 z m 42.774,32.149 c 6.109,3.379 46.511,32.351 61.625,45.238 2.445,-4.516 4.14,-14.867 -10.914,-30.863 0,0 -23.254,-24.414 -23.071,-24.219 -2.527,-2.535 27.93,24.555 29.278,23.652 14.308,-9.593 -18.965,-40.449 -18.965,-40.449 -3.969,-2.039 -4.219,-2.719 -8.891,-5.109 -28.941,-14.758 -37.57,-21.84 -44.711,-33.703 -1.25,0.238 -0.57,1.8 -0.715,1.992 -0.683,0.89 0.192,2.906 0.289,3.984 12.457,16.426 9.813,37.277 9.813,37.277 5.266,9.11 6.973,16.653 6.262,22.2 z M 1046.58,831.801 c -3.44,10.32 -11.87,9.89 -11.87,9.89 0,0 -19.29,-18.796 -18.79,-19.293 4.25,-4.25 6.16,-9.933 6.43,-10.878 0.26,-0.946 -0.71,-4.922 -3.56,-1.77 -1.77,4.691 -6.83,9.184 -6.83,9.184 l -18.565,-19.438 c -1.59,1.867 -3.133,3.832 -4.575,5.942 8.325,8.222 41.93,42.679 41.93,42.679 l -33.215,35.176 c 2.525,2.867 4.925,7.121 6.155,14.512 4.27,3.574 16.22,11.636 19.3,32.718 0.22,0.739 -0.68,7.442 1.02,8.805 6.7,5.356 13.89,17.777 14.3,28.395 l 0.3,7.824 -6.57,-4.25 c -13.94,-9.004 -36.438,-23.082 -41.29,-24.945 -0.289,-0.114 -0.562,-0.293 -0.844,-0.434 -1.07,4.73 -2.164,5.387 -3.734,5.926 l -2.406,0.82 c -0.176,-0.055 -1.969,-1.851 -1.969,-1.851 -5.766,-5.762 -21.164,-15.797 -31.859,-20.309 2.343,7.961 2.996,25.594 2.996,25.594 0,0 -13.965,-11.133 -44.922,-23.243 13.496,15.625 7.41,35.5 7.332,35.711 3.277,6.348 5.66,14.219 5.844,20.297 0.105,3.399 -1.805,13.387 -1.805,13.387 0,0 -8.051,-6.48 -9.453,-7.859 -5.938,-5.848 -37.707,-25.696 -59.453,-37.914 -0.293,1.918 -0.704,7.597 -0.997,7.55 -1.007,-0.172 -9.992,-6.519 -13.515,-9.172 -9.875,-7.406 -24.789,-18.597 -32.367,-37.753 -14.848,-37.508 -12.575,-62.606 -3.825,-72.067 -5.093,-6.887 -8.371,-14.074 -9.492,-21.269 -3.261,-20.864 -17.574,-31.399 -27.047,-38.371 -6.359,-4.688 -10.961,-8.079 -9.597,-12.372 0.179,-1.148 1.015,-2.226 2.375,-3.23 l -7.149,-6.398 c -0.011,0.023 -0.066,0.078 -0.078,0.078 l -0.183,-0.176 c 0,0 -6.442,2.012 -8.102,1.887 -1.707,-0.118 -8.715,-5.93 -9.371,-7.473 -0.649,-1.539 1.668,-4.746 1.668,-4.746 1.066,-1.055 105.289,-103.625 111.074,-109.113 4.094,-3.903 9.438,-5.411 15.039,-4.282 7.504,1.52 14.789,7.551 20.86,16.95 l 46.582,44.543 c 5.191,-4.043 22.148,-10.762 46.218,-9.559 16.953,0.875 27.95,-9.262 33.21,-14.125 2.14,-1.992 3.42,-3.164 4.74,-3.164 0.3,0 0.6,0.058 0.91,0.187 0.54,0.215 1.46,0.809 1.57,2.403 0.27,4.179 0.95,9.148 3.76,10.566 1.91,0.957 6.06,0.906 15.01,-4.836 l 2.54,-1.629 0.57,2.957 c 0.14,0.782 3.29,19.336 -29.36,28.235 -6.45,1.757 -15.84,2.617 -25.778,3.527 -12.16,1.102 -24.656,2.273 -32.797,5.125 l 13.399,12.813 c 2.719,-2.52 19.367,-16.543 53.506,-16.536 6.53,0 13.71,0.508 21.55,1.723 2.35,0.359 4.39,0.672 4.62,2.586 0.22,1.789 -1.38,2.461 -2.8,3.047 -2.17,0.91 -4.28,1.922 -4.09,3.426 0.44,3.507 2.29,6.105 5.52,7.726 l 1.57,0.82 -0.41,1.59 c -0.46,1.77 -1.09,1.758 -7.23,1.477 -11.44,-0.481 -46.275,-1.992 -54.975,9.141 -0.246,0.312 -0.484,0.515 -0.726,0.8 l 12.371,11.836 c 18.2,2.606 27.68,6.211 28.15,10.801 0.38,2.816 -1.51,5.512 -4.79,8.77 l 31.5,32.23 c 0,0 5.94,8.414 2.47,18.801 z m 59.71,207.119 c 0,5.33 4.32,9.67 9.66,9.67 5.34,0 9.66,-4.34 9.66,-9.67 0,-5.34 -4.32,-9.67 -9.66,-9.67 -5.34,0 -9.66,4.33 -9.66,9.67 z m 64.32,-116.475 c 0,5.336 4.33,9.668 9.67,9.668 5.33,0 9.66,-4.332 9.66,-9.668 0,-5.34 -4.33,-9.668 -9.66,-9.668 -5.34,0 -9.67,4.328 -9.67,9.668 z m 12.64,-132.343 c 0,5.336 4.33,9.668 9.67,9.668 5.34,0 9.67,-4.332 9.67,-9.668 0,-5.34 -4.33,-9.668 -9.67,-9.668 -5.34,0 -9.67,4.328 -9.67,9.668 z m -104.53,34.789 c 0,-4.047 -3.28,-7.325 -7.32,-7.325 -4.05,0 -7.32,3.278 -7.32,7.325 0,4.047 3.27,7.324 7.32,7.324 4.04,0 7.32,-3.277 7.32,-7.324 z m 27,46.484 c 0,4.047 3.28,7.324 7.32,7.324 4.05,0 7.33,-3.277 7.33,-7.324 0,-4.043 -3.28,-7.324 -7.33,-7.324 -4.04,0 -7.32,3.281 -7.32,7.324 z m 7.18,-72.711 c -22.59,0 -38.91,46.582 -40.68,57.789 -1.77,11.199 2.35,47.172 3.54,43.047 1.17,-4.125 4.71,-9.434 21.22,-26.539 16.52,-17.098 20.05,-74.297 15.92,-74.297 z M 990.953,483.582 c 0,0 -4.933,-1.773 -6.789,2.398 -2.105,4.731 2.149,7.391 2.149,7.391 50.197,19.738 94.787,50.938 130.667,90.469 0.32,4.672 7.99,39.609 7.99,43.781 0,1.649 -4.2,5.77 -5.92,0 -4.85,-16.152 -11.44,-37.141 -12.3,-41.461 -0.55,-2.699 -5.39,16.16 -5.39,16.16 0,0 1.07,22.621 5.92,38.762 4.58,15.262 22.5,44.785 25.13,53.066 0.34,1.075 9.25,-22.898 9.25,-44.976 0,-15.731 -0.57,-30.094 -6.34,-43.481 7.99,10.368 15.42,21.2 22.27,32.438 0.85,23.043 -3.8,50.551 -20.08,70.988 -21.8,27.363 -23.4,57.246 -23.82,69.016 -0.25,0.133 -0.52,0.289 -0.79,0.484 -4.12,2.949 -14.15,1.762 -22.4,5.891 -8.26,4.133 -17.35,15.371 -18.28,23 -0.27,2.234 11.64,2.789 18.11,-1.344 6.5,-4.129 12.75,-11.18 16.87,-13.539 4.13,-2.355 10.42,-5.758 12.78,3.09 2.36,8.844 -6.49,25.949 0.59,57.199 7.07,31.254 15.33,30.078 15.33,30.078 0.59,-12.976 11.21,-44.82 1.77,-70.762 -7.8,-21.472 -12.38,-29.195 -15.06,-31.23 0.02,-8.309 -0.05,-38.746 21.89,-66.305 14.15,-17.754 20.36,-40.226 21.79,-61.437 7.01,12.914 13.26,26.32 18.68,40.137 -0.08,0.117 -0.17,0.246 -0.25,0.402 -2.1,3.867 -3.71,28.105 -8.57,44.266 -1.72,5.753 -5.92,1.64 -5.92,0 0,-4.313 6.66,-39.266 6.47,-42.012 -0.5,-7.301 -7,4.308 -7,4.308 -15.08,17.774 -16.16,37.157 -16.16,59.239 0,22.078 16.36,46.308 16.69,45.238 2.64,-8.285 13.73,-34.82 18.31,-50.082 3.48,-11.594 4.69,-28.125 5.1,-36.563 10.41,33.653 16.03,69.477 16.03,106.637 0,0.301 -0.02,0.598 -0.03,0.902 -0.16,0.059 -0.31,0.133 -0.48,0.231 -6.57,3.762 -21.65,33.055 -25.1,37.973 -3.46,4.918 -5.23,1.859 -5.26,0.214 -0.02,-1.648 20.25,-37.835 21.05,-40.468 2.16,-6.996 -5.92,-2.149 -5.92,-2.149 -32.85,28.535 -35.54,48.461 -35.54,48.461 -9.87,40.176 -1.25,56.758 -0.56,55.879 5.43,-6.785 23.38,-28.512 34.24,-40.172 7.29,-7.82 13.26,-22.574 16.41,-31.457 -3.08,38.246 -12.12,74.774 -26.18,108.625 -0.03,0 -0.05,-0.008 -0.09,-0.008 -7.53,0.672 -33.5,20.946 -38.71,23.965 -5.19,3.016 -5.52,-0.504 -4.85,-2.011 0.66,-1.508 34.52,-24.297 36.7,-25.973 2.17,-1.672 -1.01,-2.012 -1.01,-2.012 -39.72,1.34 -59.15,25.637 -59.15,25.637 -25.81,32.345 -22.46,50.105 -21.45,49.605 7.77,-3.89 33.18,-16.09 47.92,-22.12 10.81,-4.43 23.67,-17.028 29.78,-23.446 -39.11,77.696 -105.51,138.786 -186.354,170.226 -8.707,-0.41 -24.809,-4.25 -44.141,-5.32 -5.343,-0.3 -5.152,-4 1.188,-4.45 13.754,-0.98 42.758,1.78 42.758,1.78 -4.055,-9.38 -25.664,-23.68 -58.2,-21.38 -12.687,0.89 -45.125,10.09 -52.253,22.86 -0.676,1.21 15.921,8.85 36.886,13.53 -1.363,0.44 -2.629,0.95 -3.633,1.61 -12.273,8.08 -55.613,27.02 -51.664,28.21 30.582,9.21 62.36,18.71 97.399,-2.37 26.207,-15.77 29.476,-20.94 28.926,-22.64 137.918,-50.85 236.508,-185.72 236.508,-344.134 0,-155.09 -94.51,-287.637 -227.907,-340.844 z M 959.77,464.781 c -4.215,-1.051 -16.149,4.918 -31.954,4.219 0,0 -8.773,40.379 69.532,52.32 0,0 -11.594,-14.05 -20.016,-32.66 -8.434,-18.601 -13.352,-22.82 -17.562,-23.879 z m -35.114,21.078 c -0.699,-8.089 -4.23,-23.718 -20.367,-22.468 -9.129,0.687 -11.937,-3.879 -12.992,-6.68 0,0 -4.914,16.848 -7.024,24.578 -2.101,7.723 16.192,19.68 40.383,27.742 1.051,0.34 0.703,-15.101 0,-23.172 z m 135.814,583.751 -0.03,-3.47 c -33.44,-0.02 -354.245,-0.22 -366.448,0 -12.773,0.23 -18.414,8.69 -18.336,16.97 0.074,8.21 5.528,16.53 15.821,16.53 34.609,0 342.993,-3.72 363.663,-3.97 -3.44,-20.15 5.33,-26.06 5.33,-26.06 z M 702.859,554.039 c -38.484,-0.809 -41.695,23.242 -41.695,23.242 0,0 0,42.34 0,101.867 6.047,-5.156 16.285,-12.804 25.527,-14.472 8.532,-1.543 20.25,-2.254 26.5,-2.539 V 554.859 h 14.356 v 491.301 c 81.91,-0.38 320.003,-0.64 331.993,-0.66 l 0.01,5.75 c -3.51,0 -350.636,0.57 -358.937,0.87 -23.312,0.84 -38.535,10.15 -38.535,31.3 2.125,24.81 14.356,28.73 39.004,28.73 71.363,0 357.778,-2.45 357.778,-2.45 0,0 0.75,-10.52 -2.86,-11.17 -10.15,0.13 -329.266,3.99 -364.523,3.99 -12.032,0 -18.61,-9.99 -18.692,-19.39 -0.086,-9.69 6.418,-19.6 21.153,-19.86 12.226,-0.22 332.922,-0.02 366.482,0 l -3.96,-509.231 c 0,0 -315.116,0.793 -353.601,0 z m 132.442,-73.68 c -2.11,-7.738 -7.024,-24.578 -7.024,-24.578 -1.054,2.801 -3.859,7.367 -12.992,6.668 -16.137,-1.238 -19.668,14.391 -20.363,22.473 -0.707,8.078 -1.059,23.519 0,23.168 24.187,-8.039 42.488,-20.008 40.379,-27.731 z m -43.539,-12.3 c -15.801,0.711 -27.746,-5.27 -31.961,-4.207 -4.211,1.058 -9.125,5.269 -17.551,23.878 -8.43,18.61 -20.02,32.661 -20.02,32.661 78.305,-11.95 69.532,-52.332 69.532,-52.332 z M 538.129,791.438 c 0,-5.336 -4.328,-9.668 -9.668,-9.668 -5.336,0 -9.664,4.332 -9.664,9.668 0,5.335 4.328,9.664 9.664,9.664 5.34,0 9.668,-4.329 9.668,-9.664 z m 12.641,132.343 c 0,-5.336 -4.332,-9.664 -9.668,-9.664 -5.336,0 -9.668,4.328 -9.668,9.664 0,5.336 4.332,9.668 9.668,9.668 5.336,0 9.668,-4.332 9.668,-9.668 z m 57.246,113.759 c 0,-5.34 -4.328,-9.66 -9.664,-9.66 -5.336,0 -9.668,4.32 -9.668,9.66 0,5.34 4.332,9.67 9.668,9.67 5.336,0 9.664,-4.33 9.664,-9.67 z m 41.636,-201.606 c 4.047,0 7.328,-3.274 7.328,-7.325 0,-4.043 -3.281,-7.324 -7.328,-7.324 -4.043,0 -7.324,3.281 -7.324,7.324 0,4.051 3.281,7.325 7.324,7.325 z m -46.73,38.777 c 0,4.047 3.281,7.324 7.324,7.324 4.051,0 7.324,-3.277 7.324,-7.324 0,-4.051 -3.273,-7.324 -7.324,-7.324 -4.043,0 -7.324,3.273 -7.324,7.324 z m 21.469,-0.406 c 16.515,17.097 20.054,22.406 21.234,26.531 1.176,4.129 5.305,-31.84 3.539,-43.043 -1.773,-11.203 -18.094,-57.789 -40.691,-57.789 -4.129,0 -0.59,57.195 15.918,74.301 z m 66.05,63.324 c -13.578,0.644 -24.941,16.508 -29.277,23.566 0,48.685 0,85.085 0,94.775 0,3.55 0.051,6.87 0.152,10 8.329,-16.31 31.036,-19.12 38.961,-19.58 0.887,-0.05 5.473,-0.11 12.914,-0.16 V 937.926 c -5.351,-0.246 -12.914,-0.766 -22.75,-0.297 z m 0.532,-32.516 c -12.473,0 -18.039,4.45 -29.809,16.985 0,9.976 0,19.644 0,28.929 6.285,-8.242 16.438,-18.472 28.789,-19.058 9.934,-0.473 17.766,-0.047 23.238,0.203 V 905.203 Z M 713.191,695.34 v -27.453 c -6.191,0.293 -17.484,0.996 -25.48,2.433 -10.184,1.848 -22.688,12.918 -26.547,16.532 0,8.546 0,17.402 0,26.515 4.723,-5.957 12.691,-13.273 24.281,-15.207 11.848,-1.972 21.914,-2.613 27.746,-2.82 z m -26.8,8.484 c -15.95,2.656 -24.262,18.078 -25.227,19.973 0,60.297 0,129.914 0,190.016 10.051,-10.172 16.93,-14.438 29.809,-14.438 l 22.218,0.082 V 701.09 c -5.707,0.215 -15.503,0.859 -26.8,2.734 z m 48.558,-216.703 c -0.605,-1.422 -2.574,-2.949 -5.461,-2.43 -3.758,0.688 -9.164,3.149 -9.164,3.149 -127.976,55.789 -217.679,185.476 -217.679,336.586 0,155.117 94.527,287.684 227.949,340.874 0,0 35.582,8.05 63.148,2.05 0,0 44.02,-9.97 49.485,-31.81 0.351,-1.41 -38.438,-7.55 -51.164,-7.55 -32.614,0 -53.286,9.94 -56.665,19.58 0,0 30.852,0.11 44.633,0.11 6.364,0 4.672,4.27 -0.492,4.27 -24.652,0 -40.746,5.89 -46.41,3.78 -79.055,-31.49 -144.02,-91.47 -182.813,-167.496 6.239,6.528 18.797,18.716 29.399,23.046 14.746,6.04 40.156,18.24 47.926,22.13 1,0.49 4.355,-17.27 -21.453,-49.609 0,0 -19.438,-24.297 -59.149,-25.641 0,0 -3.184,0.34 -1.008,2.02 2.18,1.672 36.028,24.461 36.696,25.968 0.675,1.504 0.336,5.028 -4.86,2.012 -5.187,-3.019 -31.164,-23.293 -38.703,-23.965 -0.008,0 -0.012,0 -0.012,0 -14.382,-34.265 -23.656,-71.289 -26.773,-110.086 2.98,8.621 9.215,24.653 16.93,32.93 10.855,11.66 28.816,33.383 34.238,40.176 0.699,0.875 9.312,-15.707 -0.555,-55.883 0,0 -2.691,-19.93 -35.543,-48.465 0,0 -8.082,-4.851 -5.922,2.149 0.805,2.632 21.075,38.816 21.047,40.468 -0.019,1.653 -1.797,4.707 -5.246,-0.214 -3.453,-4.915 -18.535,-34.211 -25.105,-37.973 -0.371,-0.215 -0.692,-0.32 -0.996,-0.367 0,-0.703 -0.039,-1.399 -0.039,-2.102 0,-37.629 5.773,-73.883 16.433,-107.926 0.266,7.11 1.328,26.239 5.215,39.188 4.578,15.254 15.672,41.797 18.309,50.086 0.335,1.066 16.695,-23.16 16.695,-45.242 0,-22.079 -1.078,-41.465 -16.156,-59.227 0,0 -6.512,-11.621 -7.004,-4.316 -0.192,2.742 6.465,37.695 6.465,42 0,1.652 -4.2,5.761 -5.922,0 -4.848,-16.153 -6.465,-40.387 -8.567,-44.266 -0.332,-0.617 -0.683,-0.949 -1.043,-1.055 4.321,-11.105 9.188,-21.914 14.547,-32.441 2.09,20.137 10.379,39.402 24.735,57.422 21.957,27.566 23.847,54.98 23.871,63.285 -2.684,2.039 -7.254,9.762 -15.063,31.227 -9.433,25.945 1.184,57.792 1.77,70.765 0,0 8.261,1.176 15.336,-30.074 7.074,-31.254 -1.774,-48.359 0.586,-57.199 2.359,-8.848 8.257,-4.129 12.386,-1.774 4.125,2.36 14.742,12.977 21.227,17.106 6.488,4.129 14.742,4.125 14.156,-3.535 -0.594,-7.668 -10.027,-18.875 -18.281,-23.004 -8.258,-4.133 -18.281,-2.95 -22.41,-5.895 -0.274,-0.195 -0.532,-0.351 -0.785,-0.488 -0.415,-11.774 -3.989,-38.617 -25.79,-65.981 -16.296,-20.461 -24.117,-42.519 -23.253,-65.574 0.031,-0.738 0.054,-1.332 0.054,-1.82 h -0.133 c 5.84,-10.168 12.164,-20.031 18.938,-29.539 -4.274,12.219 -4.738,25.23 -4.738,39.375 0,22.078 11.964,43.078 12.304,42 2.633,-8.281 17.496,-34.813 22.075,-50.086 4.851,-16.141 5.929,-38.762 5.929,-38.762 0,0 -4.847,-18.859 -5.386,-16.156 -0.868,4.316 -7.458,25.308 -12.305,41.457 -1.723,5.762 -5.922,1.652 -5.922,0 0,-4.027 7.172,-36.82 7.934,-43.231 35.128,-40.878 79.312,-73.5 129.371,-94.617 0,0 4.179,-1.89 6.851,-3.472 1.692,-1.329 2.035,-4.297 1.332,-5.938 z m 57.129,694.139 c 3.641,4.01 19.965,10.58 20.406,6.19 0.364,-3.65 -7.285,-9.11 -9.472,-10.2 -2.188,-1.09 -14.578,0 -10.934,4.01 z m 34.246,-8.38 c 0,-4.83 -3.914,-8.75 -8.742,-8.75 -4.828,0 -8.742,3.92 -8.742,8.75 0,4.83 3.914,8.74 8.742,8.74 4.828,0 8.742,-3.91 8.742,-8.74 z m 9.473,19.31 c 6.199,0.73 16.766,-1.46 17.859,-3.65 1.094,-2.18 -4.738,-3.64 -16.765,-4.37 -12.02,-0.72 -21.133,1.07 -21.133,4.01 0,3.28 13.847,3.28 20.039,4.01 z M 1275.52,806.766 c 0,0 -5.99,-4.789 -15.18,-14.371 -8.51,-8.887 -37.92,-37.985 -42.15,-42.165 4.69,23.86 7.19,48.528 7.19,73.797 0,3.211 -0.16,6.379 -0.24,9.575 0.46,-1.7 0.9,-2.493 1.33,-1.957 3.1,3.875 12.42,46.203 13.59,50.859 1.16,4.664 5.34,6.316 3.1,-2.324 -2.71,-10.485 -13.97,-59.024 -10.87,-56.309 3.11,2.719 34.56,40.77 35.33,70.281 1.4,52.793 -22.12,75.719 -22.51,71.832 -0.39,-3.882 -6.22,-31.058 -10.49,-36.886 -4.27,-5.821 -15.54,-36.106 -15.54,-36.106 0,0 0.02,-0.195 0.04,-0.488 -5.29,29.043 -13.88,56.887 -25.36,83.144 0.03,0.012 0.08,0 0.1,0.043 1.16,2.715 -6.61,45.039 -7.78,52.029 -1.16,6.99 3.89,6.6 5.44,0 0.99,-4.23 8.93,-53.197 8.93,-53.197 0,0 14.75,20.582 11.65,53.587 -6.6,70.16 -56.31,84.65 -54.36,82.32 1.94,-2.33 4.26,-20.58 4.26,-30.68 0,-6.5 2.32,-44.35 2.68,-50.07 -16.01,24.61 -34.81,47.15 -55.94,67.18 0.03,0.12 0.08,0.21 0.08,0.36 0,8.93 -21.36,38.06 -21.75,39.6 -0.38,1.56 -2.72,8.55 5.44,1.17 8.15,-7.38 24.85,-43.49 24.46,-40.38 -0.39,3.1 8.54,34.94 -20.58,71.44 -29.12,36.5 -66.79,40.39 -66.79,40.39 0,0 -8.15,9.7 13.21,-31.07 19.09,-36.44 17.71,-41.84 17.19,-42.58 -23.52,15.71 -48.91,28.77 -75.789,38.66 0.293,0.1 0.457,0.23 0.352,0.43 -2.719,5.05 -36.114,24.46 -36.114,24.46 0,0 -2.586,6.18 3.496,2.72 36.114,-20.58 48.155,-26.79 48.155,-26.79 -10.873,24.84 -38.444,49.7 -67.182,58.63 -28.73,8.92 -65.617,1.94 -62.895,0 2.719,-1.94 28.34,-22.13 29.891,-22.91 0.781,-0.39 -0.387,-2.72 -0.387,-2.72 -35.332,-3.88 -46.593,-11.65 -46.593,-11.65 0,0 0.574,-0.11 1.613,-0.32 -12.047,-0.19 -23.957,-0.97 -35.703,-2.33 2.902,2.08 6.179,7.12 19.484,25.63 13.426,18.68 7.59,25.11 7.59,25.11 -12.848,-8.18 -9.637,-7.01 -25.109,-10.81 -20.723,-5.08 -25.981,-1.17 -57.512,-19.56 -29.559,-17.24 -37.055,-35 -37.871,-37.15 -0.051,-0.14 -0.078,-0.21 -0.078,-0.21 18.683,4.38 35.617,13.43 50.504,21.02 0,0 4.671,-0.3 3.214,-1.76 -2.414,-2.4 -40.582,-20.72 -39.414,-20.14 0.184,0.1 2.207,0.55 5.493,1.26 -31.993,-10.87 -62.047,-26.06 -89.415,-45.02 4.672,3.87 8.09,6.75 8.899,7.56 3.211,3.21 16.125,22.64 23.641,41.16 8.179,20.14 11.679,27.15 11.679,27.15 -10.219,-2.04 -44.668,-7.01 -71.523,-39.12 -26.86,-32.11 -20.434,-67.73 -20.434,-67.73 l 28.899,42.34 c 0,0 6.422,2.04 3.214,-2.63 -23.128,-33.65 -25.078,-39.94 -24.453,-40.89 -21.953,-20.29 -41.48,-43.25 -58.07,-68.4 -0.703,7.61 -6.277,67.95 -6.769,72.88 -0.528,5.26 -31.157,-18.8 -42.094,-68.93 -6.313,-28.94 11.578,-56.832 12.625,-58.41 1.054,-1.574 7.371,44.73 8.949,52.62 1.551,7.76 3.5,4.49 3.156,0 -0.527,-6.84 -7.89,-52.092 -7.89,-55.772 0,-0.563 0.746,0.379 2.007,2.348 -10.871,-24.676 -19.269,-50.739 -24.683,-77.918 0.035,1.218 0.051,1.902 0.051,1.902 0,0 -7.899,7.363 -12.633,25.781 -4.738,18.418 -14.203,39.992 -14.203,42.621 0,2.633 -18.942,-11.574 -21.578,-54.191 -2.633,-42.625 26.835,-78.934 32.097,-81.035 5.266,-2.106 -7.367,47.351 -8.945,55.769 -1.574,8.422 2.105,7.895 3.156,1.582 1.035,-6.187 9.629,-52.66 14.926,-59.007 -0.055,-2.668 -0.199,-5.313 -0.199,-7.993 0,-24.914 2.445,-49.246 7.019,-72.789 -1.07,3.145 -1.746,5.086 -1.746,5.086 -2.633,0 -44.203,44.199 -50.519,52.617 -6.313,8.426 -2.625,-43.671 1.054,-55.769 3.684,-12.102 20.524,-55.774 65.774,-67.344 0.508,-0.137 -18.813,24.52 -24.731,35.77 -5.261,10 -2.629,14.211 2.629,4.211 3.906,-7.422 6.762,-11.954 22.207,-28.457 8.746,-24.668 20.008,-48.09 33.399,-70.02 -0.883,1.047 -1.407,1.668 -1.407,1.668 0,0 -2.629,-1.051 -37.363,18.949 -34.726,19.989 -37.355,18.406 -37.355,18.406 0,0 15.422,-52.984 36.308,-68.925 19.992,-15.258 44.199,-26.828 66.297,-23.16 8.559,1.429 -36.308,23.691 -43.144,31.582 -6.84,7.898 1.05,7.898 3.683,5.789 2.625,-2.102 36.828,-27.891 44.719,-29.469 0.309,-0.063 0.516,-0.024 0.68,0.047 19.289,-23.02 41.277,-43.598 65.472,-61.258 -7.426,4.641 -13,8.07 -13,8.07 0,0 1.574,-3.16 -18.418,0.52 -19.996,3.679 -54.195,8.429 -57.355,8.429 -3.153,0 25.961,-47.281 72.086,-55.261 42.621,-7.36 56.304,2.633 58.41,3.679 2.101,1.063 -20.641,5.864 -49.988,13.692 -7.895,2.101 -7.895,6.832 0.523,5.262 8.422,-1.582 41.57,-9.993 44.727,-9.473 0.621,0.101 -0.938,1.441 -3.813,3.512 26.258,-15.09 38.262,-19.891 62.531,-29.711 6.36,-4.621 10.5,-7.27 9.246,-7.508 -10.597,-2.063 -17.804,-7.172 -38.273,-13.531 -20.465,-6.352 -17.644,-5.653 -20.465,-6.352 -2.82,-0.699 30.227,-23.988 63.516,-23.988 33.879,0 34.586,11.289 57.168,9.168 22.586,-2.117 33.176,-20.469 34.586,-23.289 0,0 0.742,-0.16 1.929,-0.36 -2.16,7.77 -15.05,42.828 -71.605,38.141 0,0 46.703,15.449 74.441,-24.231 0,0 4.215,3.86 -11.937,24.93 -19.563,25.512 13.344,60.391 15.801,67.059 4.214,-9.821 37.679,-43.828 16.859,-69.867 -4.219,-5.262 -9.832,-11.243 -10.895,-20.372 0,-5.621 16.083,24.989 55.836,28.45 -8.074,-0.711 -50.394,-18.239 -51.617,-38.641 -0.148,-2.48 -0.476,-4.418 -0.89,-6.078 1.796,0.32 3.421,0.84 4.66,1.668 6.355,4.242 12,23.992 35.289,24.711 23.293,0.699 26.113,-7.77 57.875,-6.36 32.5,1.461 49.492,14.891 60.692,23.301 2.82,2.11 -46.579,6.348 -55.048,20.457 -0.336,0.563 -0.996,1.071 -1.886,1.551 23.996,7.672 46.884,17.832 68.474,30.133 -0.4,-0.703 -0.31,-1.184 0.46,-1.332 7.06,-1.41 36.7,7.769 43.75,9.879 7.07,2.113 9.18,-5.649 2.83,-7.059 -6.35,-1.41 -56.46,-15.519 -56.46,-15.519 0,0 6.35,-11.289 55.05,-5.653 48.7,5.653 72.7,55.051 72.7,55.051 0,0 0,2.82 -16.94,-2.117 -16.77,-4.891 -59.77,-6.32 -60.62,-6.352 29.25,22.321 55.05,49.059 76.58,79.168 L 1141.8,584.82 c 0,0 27.83,18.828 34.37,21.282 6.56,2.457 11.47,3.269 6.56,-4.911 -4.91,-8.171 -46.66,-28.64 -46.66,-28.64 0,0 33.56,0.82 63.84,17.179 30.29,16.372 42.56,68.754 42.56,68.754 0,0 9.01,8.192 -3.27,2.461 -12.28,-5.722 -69.57,-35.195 -69.57,-35.195 l -4.31,-6.328 c 15.66,24.25 28.65,50.449 38.46,78.211 -0.63,-2.996 -0.88,-4.785 -0.52,-4.637 2,0.801 22.76,33.535 27.15,38.731 4.39,5.183 6.78,1.992 3.99,-3.997 -2.8,-5.984 -33.13,-44.304 -28.34,-43.113 4.79,1.199 14.77,1.602 48.69,35.125 33.94,33.535 20.77,87.024 20.77,87.024 z M 570.949,1087.54 c 4.203,0 7.629,-3.43 7.629,-7.63 0,-4.2 -3.426,-7.63 -7.629,-7.63 -4.203,0 -7.625,3.43 -7.625,7.63 0,4.2 3.422,7.63 7.625,7.63 z m 0,-18.13 c 5.793,0 10.5,4.72 10.5,10.5 0,5.79 -4.707,10.5 -10.5,10.5 -5.785,0 -10.492,-4.71 -10.492,-10.5 0,-5.78 4.707,-10.5 10.492,-10.5 z M 499.078,961.762 c 4.207,0 7.625,-3.426 7.625,-7.629 0,-4.207 -3.418,-7.625 -7.625,-7.625 -4.207,0 -7.629,3.418 -7.629,7.625 0,4.203 3.422,7.629 7.629,7.629 z m 0,-18.125 c 5.789,0 10.496,4.707 10.496,10.496 0,5.789 -4.707,10.496 -10.496,10.496 -5.789,0 -10.496,-4.707 -10.496,-10.496 0,-5.789 4.707,-10.496 10.496,-10.496 z M 472.199,802.684 c 0,4.207 3.422,7.625 7.629,7.625 4.203,0 7.625,-3.418 7.625,-7.625 0,-4.204 -3.422,-7.629 -7.625,-7.629 -4.207,0 -7.629,3.425 -7.629,7.629 z m 18.125,0 c 0,5.789 -4.711,10.496 -10.496,10.496 -5.793,0 -10.5,-4.707 -10.5,-10.496 0,-5.786 4.707,-10.5 10.5,-10.5 5.785,0 10.496,4.714 10.496,10.5 z M 505.57,669.207 c 0,4.199 3.418,7.629 7.625,7.629 4.203,0 7.629,-3.43 7.629,-7.629 0,-4.207 -3.426,-7.629 -7.629,-7.629 -4.207,0 -7.625,3.422 -7.625,7.629 z m 18.125,0 c 0,5.793 -4.715,10.488 -10.5,10.488 -5.789,0 -10.496,-4.695 -10.496,-10.488 0,-5.789 4.707,-10.496 10.496,-10.496 5.785,0 10.5,4.707 10.5,10.496 z m 61.45,-118.078 c 0,4.199 3.421,7.633 7.625,7.633 4.207,0 7.628,-3.434 7.628,-7.633 0,-4.207 -3.421,-7.629 -7.628,-7.629 -4.204,0 -7.625,3.422 -7.625,7.629 z m 18.121,0 c 0,5.793 -4.707,10.492 -10.496,10.492 -5.79,0 -10.497,-4.699 -10.497,-10.492 0,-5.789 4.707,-10.5 10.497,-10.5 5.789,0 10.496,4.711 10.496,10.5 z m 103.8,-82.141 c 0,4.203 3.426,7.621 7.633,7.621 4.203,0 7.621,-3.418 7.621,-7.621 0,-4.207 -3.418,-7.629 -7.621,-7.629 -4.207,0 -7.633,3.422 -7.633,7.629 z m 18.125,0 c 0,5.782 -4.707,10.492 -10.492,10.492 -5.789,0 -10.496,-4.71 -10.496,-10.492 0,-5.789 4.707,-10.5 10.496,-10.5 5.785,0 10.492,4.711 10.492,10.5 z m 293.609,2.563 c 0,-4.199 -3.42,-7.621 -7.63,-7.621 -4.2,0 -7.62,3.422 -7.62,7.621 0,4.211 3.42,7.629 7.62,7.629 4.21,0 7.63,-3.418 7.63,-7.629 z m -18.12,0 c 0,-5.781 4.71,-10.492 10.49,-10.492 5.79,0 10.5,4.711 10.5,10.492 0,5.789 -4.71,10.5 -10.5,10.5 -5.78,0 -10.49,-4.711 -10.49,-10.5 z m 126,70.668 c -4.2,0 -7.62,3.422 -7.62,7.621 0,4.211 3.42,7.629 7.62,7.629 4.21,0 7.63,-3.418 7.63,-7.629 0,-4.199 -3.42,-7.621 -7.63,-7.621 z m 0,18.121 c -5.79,0 -10.49,-4.711 -10.49,-10.5 0,-5.781 4.7,-10.488 10.49,-10.488 5.79,0 10.5,4.707 10.5,10.488 0,5.789 -4.71,10.5 -10.5,10.5 z m 84.64,102.453 c 0,-4.211 -3.43,-7.641 -7.63,-7.641 -4.2,0 -7.62,3.43 -7.62,7.641 0,4.195 3.42,7.613 7.62,7.613 4.2,0 7.63,-3.418 7.63,-7.613 z m -18.12,0 c 0,-5.793 4.7,-10.512 10.49,-10.512 5.79,0 10.5,4.719 10.5,10.512 0,5.777 -4.71,10.484 -10.5,10.484 -5.79,0 -10.49,-4.707 -10.49,-10.484 z m 54.05,134.754 c 0,-4.203 -3.41,-7.621 -7.62,-7.621 -4.2,0 -7.63,3.418 -7.63,7.621 0,4.207 3.43,7.633 7.63,7.633 4.21,0 7.62,-3.426 7.62,-7.633 z m -18.12,0 c 0,-5.785 4.72,-10.492 10.5,-10.492 5.79,0 10.49,4.707 10.49,10.492 0,5.789 -4.7,10.504 -10.49,10.504 -5.78,0 -10.5,-4.715 -10.5,-10.504 z m -6.19,160.359 c 4.21,0 7.63,-3.422 7.63,-7.625 0,-4.203 -3.42,-7.629 -7.63,-7.629 -4.2,0 -7.62,3.426 -7.62,7.629 0,4.203 3.42,7.625 7.62,7.625 z m 0,-18.125 c 5.79,0 10.5,4.707 10.5,10.5 0,5.785 -4.71,10.492 -10.5,10.492 -5.78,0 -10.49,-4.707 -10.49,-10.492 0,-5.793 4.71,-10.5 10.49,-10.5 z m -77,154.169 c 4.2,0 7.62,-3.42 7.62,-7.63 0,-4.2 -3.42,-7.62 -7.62,-7.62 -4.2,0 -7.63,3.42 -7.63,7.62 0,4.21 3.43,7.63 7.63,7.63 z m 0,-18.12 c 5.79,0 10.49,4.71 10.49,10.49 0,5.79 -4.7,10.5 -10.49,10.5 -5.79,0 -10.5,-4.71 -10.5,-10.5 0,-5.78 4.71,-10.49 10.5,-10.49 z m -121.93,106.68 c 4.21,0 7.62,-3.42 7.62,-7.63 0,-4.2 -3.41,-7.62 -7.62,-7.62 -4.2,0 -7.63,3.42 -7.63,7.62 0,4.21 3.43,7.63 7.63,7.63 z m 0,-18.12 c 5.79,0 10.49,4.7 10.49,10.49 0,5.79 -4.7,10.5 -10.49,10.5 -5.78,0 -10.5,-4.71 -10.5,-10.5 0,-5.79 4.72,-10.49 10.5,-10.49 z m -169.412,59.19 c 4.203,0 7.621,-3.42 7.621,-7.62 0,-4.21 -3.418,-7.63 -7.621,-7.63 -4.211,0 -7.629,3.42 -7.629,7.63 0,4.2 3.418,7.62 7.629,7.62 z m 0,-18.12 c 5.785,0 10.492,4.7 10.492,10.5 0,5.78 -4.707,10.49 -10.492,10.49 -5.793,0 -10.5,-4.71 -10.5,-10.49 0,-5.8 4.707,-10.5 10.5,-10.5 z m -151.446,-19.85 c 4.207,0 7.625,-3.42 7.625,-7.63 0,-4.2 -3.418,-7.62 -7.625,-7.62 -4.203,0 -7.629,3.42 -7.629,7.62 0,4.21 3.426,7.63 7.629,7.63 z m -10.492,-7.63 c 0,-5.78 4.707,-10.49 10.492,-10.49 5.789,0 10.496,4.71 10.496,10.49 0,5.8 -4.707,10.5 -10.496,10.5 -5.785,0 -10.492,-4.7 -10.492,-10.5"
         style="fill:#ffffff;fill-opacity:1;fill-rule:nonzero;stroke:none"
         transform="matrix(0.13333333,0,0,-0.13333333,0,220.36)" />
    </g>
  </g>
</svg>
