<?xml version="1.0" encoding="UTF-8" standalone="no"?>
<!-- Created with Inkscape (http://www.inkscape.org/) -->

<svg
   version="1.1"
   id="svg1"
   width="1026.92"
   height="1107.7067"
   viewBox="0 0 1026.92 1107.7067"
   xmlns="http://www.w3.org/2000/svg"
   xmlns:svg="http://www.w3.org/2000/svg">
  <defs
     id="defs1" />
  <g
     id="g1">
    <g
       id="group-R5">
      <path
         id="path2"
         d="M 80.4883,1647.55 H 47.9766 v 295.64 h 32.5117 v -8.28 c 0,-36.11 6.7187,-59.84 20.1167,-71.21 13.067,-11.38 40.95,-16.98 83.579,-16.98 h 359.648 c 110.086,0 186.926,19.24 230.633,57.71 44.004,38.58 66.015,91.33 66.015,158.46 0,60.48 -20.972,107.62 -62.941,141.33 -41.953,33.72 -111.586,50.91 -208.953,51.58 H 184.184 c -42.629,0 -70.512,-5.68 -83.579,-17.05 -13.398,-10.96 -20.1167,-34.7 -20.1167,-71.13 v -7.77 H 47.9766 v 255.9 h 32.5117 v -6.67 c 0,-36.46 6.7187,-60.54 20.1167,-72.29 13.067,-11.31 40.95,-16.98 83.579,-16.98 h 342.093 c 83.563,0 142.907,-4.83 178.008,-14.45 35.07,-9.29 67.039,-29.31 95.93,-59.9 48.535,-51.17 72.789,-125.38 72.789,-222.36 0,-82.56 -19.266,-148.03 -57.801,-196.52 -26.492,-33.43 -57.957,-55.76 -94.402,-67.09 -36.797,-11.03 -95.785,-16.55 -176.969,-16.55 H 184.184 c -42.629,0 -70.512,-5.63 -83.579,-16.99 -13.398,-11.31 -20.1167,-35.11 -20.1167,-71.22 v -7.18 0"
         style="fill:#ffffff;fill-opacity:1;fill-rule:nonzero;stroke:none"
         transform="matrix(0.13333333,0,0,-0.13333333,0,1107.7067)" />
      <path
         id="path3"
         d="M 227.016,2636.7 H 712.52 c 43.007,0 71.21,5.51 84.632,16.49 13.086,11.03 19.606,34.4 19.606,70.21 v 9.3 h 31.992 v -248.21 h -31.992 v 6.21 c 0,35.4 -6.52,58.47 -19.606,69.17 -13.422,10.96 -41.625,16.48 -84.632,16.48 H 161.484 l -21.117,-15.48 c -39.898,-29.91 -59.8318,-57.64 -59.8787,-83.06 v -9.29 H 47.9766 v 153.2 L 636.672,3101.03 H 184.184 c -42.629,0 -70.512,-5.62 -83.579,-16.99 -13.398,-11.03 -20.1167,-34.6 -20.1167,-70.71 v -8.26 H 47.9766 v 247.7 h 32.5117 v -9.31 c 0,-35.45 6.7187,-58.78 20.1167,-70.15 13.067,-11.03 40.95,-16.54 83.579,-16.54 h 688.82 L 227.016,2636.7 v 0"
         style="fill:#ffffff;fill-opacity:1;fill-rule:nonzero;stroke:none"
         transform="matrix(0.13333333,0,0,-0.13333333,0,1107.7067)" />
      <path
         id="path4"
         d="m 848.75,3597.54 v -296.12 h -31.992 v 8.25 c 0,36.11 -6.52,59.64 -19.606,70.67 -13.422,11.36 -41.625,17.05 -84.632,17.05 H 184.184 c -42.629,0 -70.512,-5.69 -83.579,-17.05 -13.398,-11.03 -20.1167,-34.56 -20.1167,-70.67 v -8.25 H 47.9766 v 296.12 h 32.5117 v -7.75 c 0,-36.11 6.7187,-59.81 20.1167,-71.18 13.067,-11.35 40.95,-17.05 83.579,-17.05 H 712.52 c 42.675,0 70.671,5.7 84.128,17.05 13.375,11.37 20.11,35.07 20.11,71.18 v 7.75 h 31.992 v 0"
         style="fill:#ffffff;fill-opacity:1;fill-rule:nonzero;stroke:none"
         transform="matrix(0.13333333,0,0,-0.13333333,0,1107.7067)" />
      <path
         id="path5"
         d="m 716.156,4048.62 -534.554,217.19 c -34.368,14.12 -55.887,21.16 -64.454,21.16 -20.6636,0 -32.691,-17.72 -36.1558,-53.12 l -0.5039,-8.77 H 47.9766 v 197.08 h 32.5117 v -8.77 c 0,-20.27 7.4023,-37.17 22.1877,-50.56 14.472,-13.44 41.797,-28.55 82.047,-45.44 l 688.281,-282.74 v -31.91 L 184.723,3709.65 C 115.215,3680.07 80.5352,3652.93 80.4883,3628.12 v -6.72 H 47.9766 v 236.31 h 32.5117 v -9.28 c 0,-20.65 2.0664,-34.52 6.2148,-41.8 4.1289,-7.21 12.2227,-10.77 24.2149,-10.77 11.008,0 35.605,8.19 73.805,24.73 l 531.433,228.03 v 0"
         style="fill:#ffffff;fill-opacity:1;fill-rule:nonzero;stroke:none"
         transform="matrix(0.13333333,0,0,-0.13333333,0,1107.7067)" />
      <path
         id="path6"
         d="m 444.254,4646.72 h 271.902 c 34.403,0 58.473,14.47 72.219,43.37 13.41,29.21 20.117,80.43 20.117,153.73 v 21.67 c 0,31.99 -8.082,55.55 -24.258,70.68 -16.125,15.51 -44.699,26.5 -85.629,33.02 l -9.828,1.58 V 5011 l 174.383,-16.03 c -4.445,-65.66 -6.66,-114.51 -6.66,-146.53 0,-34.03 -1.422,-74.1 -4.137,-120.16 -2.429,-45.08 -3.613,-72.24 -3.613,-81.56 v -200.18 h -31.992 v 9.27 c 0,34.43 -6.875,57.47 -20.653,69.17 -14.085,11.71 -41.964,17.5 -83.585,17.54 H 185.754 c -44.024,0 -72.609,-5.5 -85.656,-16.5 -13.0433,-10.66 -19.5628,-34.1 -19.6097,-70.21 v -9.27 H 47.9766 v 528.35 l 148.6174,15.98 v -40.24 l -10.84,-1.57 c -45.035,-6.52 -72.609,-19.58 -82.574,-39.18 -9.9573,-19.32 -14.9534,-70.02 -14.9534,-152.2 V 4646.72 H 412.242 v 119.73 c 0,55 -4.644,90.09 -13.914,105.27 -9.656,15.43 -31.308,23.17 -65.015,23.17 h -8.782 v 39.78 h 207.907 v -39.78 h -7.692 c -30.293,0 -51.953,-6.37 -65.058,-19.07 -10.297,-10.33 -15.434,-46.81 -15.434,-109.37 v -119.73 0"
         style="fill:#ffffff;fill-opacity:1;fill-rule:nonzero;stroke:none"
         transform="matrix(0.13333333,0,0,-0.13333333,0,1107.7067)" />
      <path
         id="path7"
         d="m 436.508,5271.16 v 116.1 c -13.426,44.36 -38,78.74 -73.789,103.19 -35.77,24.39 -79.281,36.59 -130.555,36.59 -52.93,0 -91.445,-16.85 -115.562,-50.5 -24.0707,-33.42 -36.0668,-87.04 -36.1137,-160.99 v -44.39 H 436.508 Z m 31.961,0 H 712.52 c 42.675,0 70.671,5.54 84.128,16.53 13.375,11.33 20.11,34.89 20.11,70.68 v 4.62 h 31.992 v -292 h -31.992 v 7.7 c 0,36.51 -6.52,60.21 -19.606,71.21 -13.422,11.37 -41.625,17.05 -84.632,17.05 H 184.184 c -42.629,0 -70.512,-5.68 -83.579,-17.05 -13.398,-11 -20.1167,-34.7 -20.1167,-71.21 v -7.7 H 47.9766 v 302.85 c 0,95.6 12.2382,163 36.6484,202.24 24.406,39.56 66.387,59.29 125.879,59.33 55.742,0 103.191,-15.83 142.391,-47.44 38.867,-31.32 69.683,-78.62 92.386,-141.92 13.766,22.35 28.52,40.07 44.364,53.17 15.824,13.42 51.429,37.62 106.781,72.71 l 84.125,52.14 c 57.117,36.45 94.078,62.6 110.89,78.39 16.914,15.82 25.317,32.7 25.317,50.59 v 6.19 H 848.75 V 5604.48 L 468.469,5373.84 v -102.68 0"
         style="fill:#ffffff;fill-opacity:1;fill-rule:evenodd;stroke:none"
         transform="matrix(0.13333333,0,0,-0.13333333,0,1107.7067)" />
      <path
         id="path8"
         d="m 840.48,5802.74 -175.937,-11.38 v 40.25 l 8.234,1.56 c 53.664,10.32 95.118,31.78 124.375,64.5 28.871,32.66 43.328,74.12 43.328,124.31 0,45.39 -15.3,84.25 -45.89,116.61 -30.981,32.66 -68.149,49.02 -111.477,49.02 -54.679,0 -110.586,-41.79 -167.687,-125.39 l -54.668,-79.4 c -52.977,-77.1 -94.098,-127.65 -123.324,-151.72 -29.563,-23.71 -65.168,-35.6 -106.793,-35.6 -61.93,0 -111.786,24.95 -149.6488,74.82 -37.8086,50.21 -56.7227,116.26 -56.7227,198.12 0,63.94 11.336,129.15 34.0313,195.52 l 150.1332,17.02 v -41.27 l -8.246,-2.56 C 104.23,6209.62 56.2188,6146.67 56.2188,6048.32 c 0,-44.06 13.2851,-80.51 39.7617,-109.39 26.4685,-28.86 60.0275,-43.34 100.6135,-43.34 51.234,0 101.496,35.75 150.648,107.29 l 78.41,114.59 c 49.219,71.53 88.395,118.47 117.649,140.81 28.887,22.36 65.199,33.52 108.855,33.56 67.43,0 121.09,-25.81 160.989,-77.39 39.875,-51.25 59.82,-120.19 59.859,-206.88 0,-72.26 -10.852,-140.54 -32.524,-204.83 v 0"
         style="fill:#ffffff;fill-opacity:1;fill-rule:nonzero;stroke:none"
         transform="matrix(0.13333333,0,0,-0.13333333,0,1107.7067)" />
      <path
         id="path9"
         d="m 848.75,6672.2 v -296.1 h -31.992 v 8.23 c 0,36.11 -6.52,59.68 -19.606,70.68 -13.422,11.37 -41.625,17.03 -84.632,17.03 H 184.184 c -42.629,0 -70.512,-5.66 -83.579,-17.03 -13.398,-11 -20.1167,-34.57 -20.1167,-70.68 v -8.23 H 47.9766 v 296.1 h 32.5117 v -7.73 c 0,-36.1 6.7187,-59.84 20.1167,-71.21 13.067,-11.34 40.95,-17.02 83.579,-17.02 H 712.52 c 42.675,0 70.671,5.68 84.128,17.02 13.375,11.37 20.11,35.11 20.11,71.21 v 7.73 h 31.992 v 0"
         style="fill:#ffffff;fill-opacity:1;fill-rule:nonzero;stroke:none"
         transform="matrix(0.13333333,0,0,-0.13333333,0,1107.7067)" />
      <path
         id="path10"
         d="m 88.2266,7014.41 v -81.48 c 0,-61.26 8.2578,-103.56 24.7814,-126.92 16.508,-23.42 48.847,-38.71 96.992,-45.91 l 10.328,-1.59 v -42.31 l -186.2655,19.64 c 9.2695,89.08 13.9141,181.91 13.9141,278.57 v 107.85 c 0,96.64 -4.6446,189.5 -13.9141,278.64 l 186.2655,19.6 v -41.8 L 210,7376.62 c -48.145,-7.24 -80.484,-22.55 -96.992,-45.9 -16.5236,-23.42 -24.7814,-65.73 -24.7814,-126.91 v -81.55 H 713.02 c 43.054,0 71.046,6.52 84.132,19.61 13.086,13.41 19.606,41.61 19.606,84.63 v 7.69 h 31.992 v -331.74 h -31.992 v 7.76 c 0,43.33 -6.52,71.56 -19.606,84.63 -13.086,13.08 -41.078,19.57 -84.132,19.57 H 88.2266 v 0"
         style="fill:#ffffff;fill-opacity:1;fill-rule:nonzero;stroke:none"
         transform="matrix(0.13333333,0,0,-0.13333333,0,1107.7067)" />
      <path
         id="path11"
         d="m 556.715,7602.82 v 312.63 L 179.039,7755.53 556.715,7602.82 Z m 39.711,-14.99 119.195,-49.01 c 33.695,-14.11 55.031,-21.14 63.981,-21.14 21.003,0 33.039,17.68 36.105,53.1 l 1.051,8.28 h 31.992 v -196.55 h -31.992 v 8.23 c 0,20.64 -7.262,37.69 -21.664,51.08 -14.797,13.44 -42.492,28.38 -83.078,44.89 L 24.2695,7769.45 v 32.49 l 687.7465,292.55 c 42.629,18.22 70.843,32.66 84.632,43.31 13.375,10.66 20.11,23.59 20.11,38.75 v 6.71 h 31.992 v -236.35 h -31.992 v 8.79 c 0,20.97 -2.051,35.07 -6.188,42.32 -4.14,7.2 -12.218,10.8 -24.257,10.8 -9.973,0 -34.743,-8.25 -74.297,-24.74 l -115.59,-48.51 v -347.74 0"
         style="fill:#ffffff;fill-opacity:1;fill-rule:evenodd;stroke:none"
         transform="matrix(0.13333333,0,0,-0.13333333,0,1107.7067)" />
      <path
         id="path12"
         d="m 328.684,8141.69 h -34.602 c -34.047,53.66 -88.019,82.73 -161.992,87.2 l -44.383,-87.2 c -58.4531,7.56 -87.6718437,36.61 -87.707,87.2 0,23.02 8.77344,41.95 26.3281,56.74 17.5039,14.78 40.0625,22.21 67.5821,22.21 89.4488,0 167.6838,-55.37 234.7738,-166.15 v 0"
         style="fill:#ffffff;fill-opacity:1;fill-rule:evenodd;stroke:none"
         transform="matrix(0.13333333,0,0,-0.13333333,0,1107.7067)" />
      <path
         id="path13"
         d="m 1319.53,8137.57 v -593.04 c 0,-62.22 53.66,-93.35 161.07,-93.35 79.98,0 143.8,30.33 191.52,90.94 47.76,60.95 71.58,142.39 71.6,244.27 0,99.97 -28.72,183.02 -86.09,249.11 -33.87,38.73 -71.43,65.3 -112.67,79.79 -40.98,14.85 -99.05,22.28 -174.13,22.28 h -51.3 z m -187.67,-720.26 v 30.02 h 9.66 c 32.89,0 54.5,6.1 64.81,18.39 10.34,12.58 15.48,38.82 15.48,78.81 v 494.85 c 0,40.62 -5.14,67.07 -15.48,79.31 -10.31,12.62 -31.92,18.88 -64.81,18.88 h -9.66 v 30.44 h 279.09 c 95.43,-1.9 162.83,-8.03 202.17,-18.35 39.33,-9.99 81.44,-30.66 126.26,-61.9 75.13,-58.05 112.7,-146.57 112.7,-265.55 0,-114.18 -34.04,-211.73 -102.05,-292.63 -36.16,-42.59 -78.55,-71.95 -127.19,-88.06 -48.4,-16.1 -119.01,-24.21 -211.89,-24.21 h -279.09 v 0"
         style="fill:#ffffff;fill-opacity:1;fill-rule:evenodd;stroke:none"
         transform="matrix(0.13333333,0,0,-0.13333333,0,1107.7067)" />
      <path
         id="path14"
         d="m 2112.68,7796.55 v -254.91 c 0,-32.25 13.54,-54.8 40.62,-67.73 27.4,-12.59 75.46,-18.85 144.17,-18.85 h 20.31 c 29.99,0 52.06,7.58 66.24,22.75 14.52,15.13 24.83,41.9 30.96,80.32 l 1.48,9.17 h 37.74 l -15.04,-163.52 c -61.57,4.2 -107.38,6.32 -137.35,6.32 -31.93,0 -69.52,1.29 -112.71,3.83 -42.25,2.31 -67.7,3.38 -76.42,3.38 H 1925 v 30.02 h 8.7 c 32.27,0 53.85,6.41 64.83,19.34 10.97,13.22 16.42,39.35 16.46,78.37 v 493.84 c 0,41.26 -5.18,68.05 -15.5,80.32 -9.99,12.21 -31.93,18.37 -65.79,18.37 h -8.7 v 30.44 h 495.3 l 15.01,-139.27 h -37.75 l -1.42,10.14 c -6.14,42.23 -18.39,68.05 -36.77,77.42 -18.06,9.33 -65.65,14 -142.69,14 h -104 v -303.75 h 112.22 c 51.59,0 84.48,4.33 98.66,13.04 14.53,9.03 21.76,29.34 21.76,60.98 v 8.19 h 37.28 v -194.92 h -37.28 v 7.26 c 0,28.35 -5.96,48.7 -17.86,60.95 -9.68,9.7 -43.88,14.5 -102.56,14.5 h -112.22 v 0"
         style="fill:#ffffff;fill-opacity:1;fill-rule:nonzero;stroke:none"
         transform="matrix(0.13333333,0,0,-0.13333333,0,1107.7067)" />
      <path
         id="path15"
         d="m 3126.39,7436.69 c -81.58,-28.09 -157.85,-42.11 -228.78,-42.11 -131.23,0 -228.77,42.74 -292.62,128.18 -55.14,74.17 -82.71,164.32 -82.71,270.41 0,118.98 32.87,214.9 98.66,287.81 66.11,72.86 153.18,109.3 261.2,109.3 85.44,0 162.04,-10.17 229.74,-30.47 l 14.51,-149.44 h -37.74 l -1.42,8.18 c -0.67,23.84 -11.76,50.94 -33.39,81.25 -37.44,40.33 -91.91,60.48 -163.49,60.52 -78.04,0 -141.06,-34.2 -189.12,-102.57 -48.04,-68.39 -72.05,-158.31 -72.05,-269.89 0,-110.63 26.58,-195.75 79.79,-255.36 53.53,-59.39 129.78,-89.04 228.76,-89.04 25.2,0 58.06,3.21 98.73,9.65 v 171.25 c 0,39.64 -5.36,65.61 -15.98,77.89 -10.35,12.55 -32.1,18.85 -65.32,18.85 h -8.72 v 29.98 h 269.93 v -29.98 h -6.78 c -34.21,0 -56.58,-6.3 -67.24,-18.85 -10.61,-12.28 -15.96,-38.25 -15.96,-77.89 v -187.67 0"
         style="fill:#ffffff;fill-opacity:1;fill-rule:nonzero;stroke:none"
         transform="matrix(0.13333333,0,0,-0.13333333,0,1107.7067)" />
      <path
         id="path16"
         d="m 3769.62,7586.14 h 37.73 l -17.42,-178.98 c -110.92,6.77 -218.97,10.15 -324.11,10.15 h -187.64 v 30.02 h 8.7 c 33.55,0 55.45,6.28 65.79,18.86 10.28,12.57 15.45,39.23 15.45,79.83 v 494.31 c 0,39.99 -5.28,66.12 -15.96,78.36 -10.28,12.62 -32.09,18.88 -65.28,18.88 h -8.7 v 30.44 h 277.63 v -30.44 h -8.24 c -33.53,0 -55.59,-6.26 -66.27,-18.88 -10.29,-12.24 -15.48,-38.37 -15.48,-78.36 v -494.31 c 0,-32.58 11.8,-54.64 35.32,-66.31 23.55,-11.58 68.38,-17.39 134.49,-17.39 h 23.7 c 39.66,0 65.1,7.73 76.4,23.21 16.46,22.9 27.25,52.73 32.43,89.53 l 1.46,11.08 v 0"
         style="fill:#ffffff;fill-opacity:1;fill-rule:nonzero;stroke:none"
         transform="matrix(0.13333333,0,0,-0.13333333,0,1107.7067)" />
      <path
         id="path17"
         d="M 4127.45,7417.31 H 3849.8 v 30.02 h 7.75 c 33.86,0 55.92,6.1 66.21,18.39 10.7,12.58 16.02,38.99 16.02,79.32 v 495.29 c 0,39.99 -5.32,66.12 -16.02,78.36 -10.29,12.62 -32.35,18.88 -66.21,18.88 h -7.75 v 30.44 h 277.65 v -30.44 h -7.28 c -33.84,0 -56.08,-6.26 -66.78,-18.88 -10.59,-12.24 -15.88,-38.37 -15.88,-78.36 v -495.29 c 0,-40.03 5.29,-66.28 15.88,-78.85 10.7,-12.58 32.94,-18.86 66.78,-18.86 h 7.28 v -30.02 0"
         style="fill:#ffffff;fill-opacity:1;fill-rule:nonzero;stroke:none"
         transform="matrix(0.13333333,0,0,-0.13333333,0,1107.7067)" />
      <path
         id="path18"
         d="m 4534,7425.1 -10.62,164.92 h 37.76 l 1.46,-7.75 c 9.6,-50.29 29.75,-89.14 60.42,-116.55 30.62,-27.08 69.47,-40.62 116.53,-40.62 42.61,0 79.05,14.34 109.34,43.03 30.66,29.02 45.94,63.85 45.94,104.48 0,51.28 -39.19,103.68 -117.54,157.22 l -74.5,51.27 c -72.21,49.65 -119.58,88.16 -142.15,115.61 -22.29,27.71 -33.39,61.07 -33.39,100.11 0,58.01 23.37,104.76 70.11,140.26 47.05,35.46 108.95,53.2 185.74,53.2 60.01,0 121.08,-10.6 183.29,-31.89 l 16.02,-140.8 h -38.76 l -2.36,7.75 c -25.85,89.95 -84.82,134.98 -177.03,134.98 -41.35,0 -75.51,-12.47 -102.59,-37.25 -27.08,-24.87 -40.63,-56.29 -40.63,-94.33 0,-48.06 33.59,-95.15 100.61,-141.24 l 107.41,-73.55 c 67.09,-46.11 111.1,-82.86 132.01,-110.27 20.95,-27.08 31.49,-61.11 31.49,-102.05 0,-63.22 -24.19,-113.52 -72.61,-150.92 -48,-37.4 -112.62,-56.07 -193.87,-56.13 -67.77,0 -131.81,10.16 -192.08,30.52 v 0"
         style="fill:#ffffff;fill-opacity:1;fill-rule:nonzero;stroke:none"
         transform="matrix(0.13333333,0,0,-0.13333333,0,1107.7067)" />
      <path
         id="path19"
         d="m 5340.72,8130.3 h -76.45 c -57.4,0 -97.07,-7.73 -119.01,-23.22 -21.92,-15.47 -36.24,-45.82 -42.98,-90.96 l -1.49,-9.64 h -39.64 l 18.33,174.6 c 83.5,-8.65 170.61,-13.07 261.24,-13.07 h 101.09 c 90.54,0 177.63,4.42 261.23,13.07 l 18.33,-174.6 h -39.15 l -1.98,9.64 c -6.74,45.14 -21.1,75.49 -43.07,90.96 -21.91,15.49 -61.52,23.22 -118.94,23.22 h -76.42 v -585.77 c 0,-40.28 6.12,-66.6 18.33,-78.81 12.62,-12.29 39.06,-18.39 79.4,-18.39 h 7.19 v -30.02 h -311.02 v 30.02 h 7.27 c 40.62,0 67.11,6.1 79.33,18.39 12.28,12.21 18.39,38.53 18.41,78.81 v 585.77 0"
         style="fill:#ffffff;fill-opacity:1;fill-rule:nonzero;stroke:none"
         transform="matrix(0.13333333,0,0,-0.13333333,0,1107.7067)" />
      <path
         id="path20"
         d="m 5759.96,8137.57 v 30.44 h 277.14 v -30.44 h -7.75 c -33.86,0 -56.08,-6.26 -66.75,-18.88 -10.58,-12.24 -15.92,-38.37 -15.92,-78.36 v -337.15 c 0,-103.18 18.05,-175.23 54.16,-216.19 36.1,-41.27 85.6,-61.89 148.54,-61.89 56.72,0 100.88,19.61 132.5,58.99 31.57,39.31 47.71,104.61 48.33,195.89 v 360.35 c 0,39.99 -5.25,66.12 -15.9,78.36 -10.37,12.62 -32.62,18.88 -66.8,18.88 h -7.29 v 30.44 h 239.94 v -30.44 h -6.24 c -34.16,0 -56.82,-6.26 -67.71,-18.88 -10.66,-12.24 -16.01,-38.37 -16.01,-78.36 v -320.67 c 0,-78.35 -4.54,-134 -13.56,-166.86 -8.69,-32.92 -27.38,-62.88 -56.07,-90.01 -48.04,-45.48 -117.53,-68.21 -208.47,-68.21 -77.4,0 -138.83,18.12 -184.3,54.22 -31.28,24.81 -52.19,54.31 -62.85,88.51 -10.37,34.48 -15.48,89.81 -15.48,165.87 v 337.15 c 0,39.99 -5.34,66.12 -15.98,78.36 -10.67,12.62 -32.92,18.88 -66.76,18.88 h -6.77 v 0"
         style="fill:#ffffff;fill-opacity:1;fill-rule:nonzero;stroke:none"
         transform="matrix(0.13333333,0,0,-0.13333333,0,1107.7067)" />
      <path
         id="path21"
         d="m 6729.19,8137.57 v -593.04 c 0,-62.22 53.67,-93.35 161.09,-93.35 79.91,0 143.77,30.33 191.49,90.94 47.73,60.95 71.64,142.39 71.64,244.27 0,99.97 -28.75,183.02 -86.1,249.11 -33.93,38.73 -71.47,65.3 -112.72,79.79 -41,14.85 -99.02,22.28 -174.14,22.28 h -51.26 z m -187.72,-720.26 v 30.02 h 9.69 c 32.96,0 54.5,6.1 64.87,18.39 10.29,12.58 15.38,38.82 15.47,78.81 v 494.85 c 0,40.62 -5.18,67.07 -15.47,79.31 -10.37,12.62 -31.91,18.88 -64.87,18.88 h -9.69 v 30.44 h 279.11 c 95.45,-1.9 162.87,-8.03 202.21,-18.35 39.34,-9.99 81.38,-30.66 126.27,-61.9 75.12,-58.05 112.68,-146.57 112.68,-265.55 0,-114.18 -34.05,-211.73 -102.07,-292.63 -36.11,-42.59 -78.48,-71.95 -127.2,-88.06 -48.41,-16.1 -119,-24.21 -211.89,-24.21 h -279.11 v 0"
         style="fill:#ffffff;fill-opacity:1;fill-rule:evenodd;stroke:none"
         transform="matrix(0.13333333,0,0,-0.13333333,0,1107.7067)" />
      <path
         id="path22"
         d="m 7612.35,7417.31 h -277.63 v 30.02 h 7.68 c 33.85,0 55.91,6.1 66.28,18.39 10.63,12.58 15.97,38.99 15.97,79.32 v 495.29 c 0,39.99 -5.34,66.12 -15.97,78.36 -10.37,12.62 -32.43,18.88 -66.28,18.88 h -7.68 v 30.44 h 277.63 v -30.44 h -7.3 c -33.83,0 -56.11,-6.26 -66.72,-18.88 -10.7,-12.24 -16.04,-38.37 -16.04,-78.36 v -495.29 c 0,-40.03 5.34,-66.28 16.04,-78.85 10.61,-12.58 32.89,-18.86 66.72,-18.86 h 7.3 v -30.02 0"
         style="fill:#ffffff;fill-opacity:1;fill-rule:nonzero;stroke:none"
         transform="matrix(0.13333333,0,0,-0.13333333,0,1107.7067)" />
      <path
         id="path23"
         d="m 7590.3,6950.2 h -593.02 c -62.25,0 -93.34,-53.7 -93.34,-161.09 0,-79.93 30.37,-143.81 90.99,-191.5 60.94,-47.74 142.34,-71.6 244.24,-71.6 99.96,0 182.96,28.7 249.08,86.06 38.71,33.89 65.28,71.46 79.84,112.73 14.78,40.98 22.21,98.99 22.21,174.12 v 51.28 z m -720.19,187.66 h 29.96 v -9.66 c 0,-32.91 6.15,-54.49 18.41,-64.82 12.54,-10.33 38.83,-15.49 78.8,-15.49 h 494.82 c 40.69,0 67.09,5.16 79.35,15.49 12.53,10.33 18.85,31.91 18.85,64.82 v 9.66 h 30.52 v -279.1 c -1.95,-95.41 -8.11,-162.79 -18.39,-202.16 -10.03,-39.31 -30.66,-81.44 -61.95,-126.27 -58.03,-75.08 -146.56,-112.64 -265.54,-112.7 -114.18,0 -211.71,34.07 -292.63,102.08 -42.54,36.14 -71.87,78.52 -88.01,127.23 -16.17,48.36 -24.19,118.99 -24.19,211.82 v 279.1 0"
         style="fill:#ffffff;fill-opacity:1;fill-rule:evenodd;stroke:none"
         transform="matrix(0.13333333,0,0,-0.13333333,0,1107.7067)" />
      <path
         id="path24"
         d="m 6870.11,6080.49 v 277.63 h 29.96 v -7.71 c 0,-33.84 6.15,-55.94 18.41,-66.25 12.54,-10.67 39,-16 79.29,-16 h 495.33 c 40.01,0 66.09,5.33 78.35,16 12.53,10.31 18.85,32.41 18.85,66.25 v 7.71 h 30.52 v -277.63 h -30.52 v 7.24 c 0,33.86 -6.32,56.14 -18.85,66.78 -12.26,10.66 -38.34,15.99 -78.35,15.99 h -495.33 c -39.95,0 -66.26,-5.33 -78.82,-15.99 -12.62,-10.64 -18.88,-32.92 -18.88,-66.78 v -7.24 h -29.96 v 0"
         style="fill:#ffffff;fill-opacity:1;fill-rule:nonzero;stroke:none"
         transform="matrix(0.13333333,0,0,-0.13333333,0,1107.7067)" />
      <path
         id="path25"
         d="m 7493.1,5575.96 h -495.33 c -39.95,0 -66.26,-5.29 -78.82,-15.93 -12.62,-10.67 -18.88,-33.03 -18.88,-67.22 v -6.82 h -29.96 v 228.82 h 29.96 v -6.77 c 0,-34.18 6.26,-56.59 18.88,-67.25 12.56,-10.66 38.87,-15.94 78.82,-15.94 h 495.33 c 40.01,0 66.09,5.28 78.35,15.94 12.53,10.62 18.85,33.07 18.85,67.25 v 6.77 h 30.52 v -174.62 l -539.35,-278.58 539.35,-255.88 v -180.44 h -30.52 v 7.74 c 0,33.85 -6.32,56.09 -18.85,66.76 -12.26,10.65 -38.34,15.94 -78.35,15.94 h -476.44 c -52.92,0 -85.64,-5.29 -98.18,-15.94 -12.26,-10.67 -18.41,-32.91 -18.41,-66.76 v -7.74 h -29.96 v 270.41 h 29.96 v -5.83 c 0,-34.49 6.15,-57.06 18.41,-67.7 12.54,-10.98 39,-16.44 79.29,-16.44 h 545.15 l -599.32,286.34 549.5,283.89 v 0"
         style="fill:#ffffff;fill-opacity:1;fill-rule:nonzero;stroke:none"
         transform="matrix(0.13333333,0,0,-0.13333333,0,1107.7067)" />
      <path
         id="path26"
         d="m 6870.11,4492.5 v 277.66 h 29.96 v -7.76 c 0,-33.86 6.15,-55.95 18.41,-66.29 12.54,-10.6 39,-15.92 79.29,-15.92 h 495.33 c 40.01,0 66.09,5.32 78.35,15.92 12.53,10.34 18.85,32.43 18.85,66.29 v 7.76 h 30.52 V 4492.5 h -30.52 v 7.27 c 0,33.85 -6.32,56.1 -18.85,66.74 -12.26,10.63 -38.34,15.94 -78.35,15.94 h -495.33 c -39.95,0 -66.26,-5.31 -78.82,-15.94 -12.62,-10.64 -18.88,-32.89 -18.88,-66.74 v -7.27 h -29.96 v 0"
         style="fill:#ffffff;fill-opacity:1;fill-rule:nonzero;stroke:none"
         transform="matrix(0.13333333,0,0,-0.13333333,0,1107.7067)" />
      <path
         id="path27"
         d="m 7038.9,3945.9 v -37.71 l -178.95,17.39 c 6.76,111 10.16,219 10.16,324.11 v 187.64 h 29.96 v -8.72 c 0,-33.48 6.26,-55.42 18.88,-65.75 12.56,-10.32 39.15,-15.47 79.77,-15.49 h 494.38 c 40.01,0 66.09,5.33 78.35,15.94 12.53,10.32 18.85,32.1 18.85,65.3 v 8.72 h 30.52 V 4159.7 h -30.52 v 8.24 c 0,33.51 -6.32,55.61 -18.85,66.28 -12.26,10.32 -38.34,15.47 -78.35,15.47 h -494.38 c -32.54,0 -54.67,-11.78 -66.22,-35.35 -11.63,-23.49 -17.38,-68.32 -17.38,-134.46 v -23.68 c 0,-39.68 7.68,-65.17 23.19,-76.46 22.85,-16.38 52.7,-27.15 89.48,-32.37 l 11.11,-1.47 v 0"
         style="fill:#ffffff;fill-opacity:1;fill-rule:nonzero;stroke:none"
         transform="matrix(0.13333333,0,0,-0.13333333,0,1107.7067)" />
      <path
         id="path28"
         d="m 7143.88,3695.48 v -293.07 l 354.07,149.87 -354.07,143.2 z m -37.28,14.04 -111.67,45.96 c -31.67,13.22 -51.6,19.81 -60.02,19.81 -19.67,0 -30.97,-16.62 -33.84,-49.81 l -1,-7.79 h -29.96 v 184.32 h 29.96 v -7.78 c 0,-19.3 6.76,-35.26 20.3,-47.82 13.94,-12.6 39.88,-26.65 77.9,-42.12 l 644.79,-265.04 v -30.48 L 6998.27,3234.5 c -40.03,-17.05 -66.43,-30.6 -79.32,-40.62 -12.62,-9.95 -18.88,-22.08 -18.88,-36.28 v -6.28 h -29.96 v 221.54 h 29.96 v -8.23 c 0,-19.63 1.91,-32.89 5.83,-39.64 3.83,-6.8 11.46,-10.18 22.74,-10.18 9.28,0 32.52,7.69 69.63,23.23 l 108.33,45.41 v 326.07 0"
         style="fill:#ffffff;fill-opacity:1;fill-rule:evenodd;stroke:none"
         transform="matrix(0.13333333,0,0,-0.13333333,0,1107.7067)" />
      <path
         id="path29"
         d="m 7452.98,2975.71 h -455.21 c -40.29,0 -66.75,-5.09 -79.29,-15.45 -12.26,-10.29 -18.41,-32.24 -18.41,-65.79 v -8.69 h -29.96 v 232.63 h 29.96 v -5.83 c 0,-33.15 6.15,-54.78 18.41,-64.72 12.54,-10.36 39,-15.53 79.29,-15.53 h 516.56 l 19.9,14.52 c 37.34,28.09 56.07,53.99 56.07,77.82 v 8.75 h 30.52 v -143.67 l -551.9,-449.35 h 424.18 c 40.01,0 66.09,5.35 78.35,15.98 12.53,10.33 18.85,32.39 18.85,66.27 v 7.75 h 30.52 v -232.21 h -30.52 v 8.73 c 0,33.18 -6.32,55.17 -18.85,65.77 -12.26,10.28 -38.34,15.5 -78.35,15.5 h -645.79 l 605.67,487.52 v 0"
         style="fill:#ffffff;fill-opacity:1;fill-rule:nonzero;stroke:none"
         transform="matrix(0.13333333,0,0,-0.13333333,0,1107.7067)" />
      <path
         id="path30"
         d="m 6877.82,1997.71 c 0,-70.93 34.36,-129.33 103.07,-175.14 68.98,-45.75 157.14,-68.62 264.56,-68.62 107.06,0 195.07,22.87 264.09,68.62 68.99,45.81 103.5,104.21 103.54,175.14 0,70.99 -34.55,129.28 -103.54,175.08 -69.02,45.81 -157.03,68.65 -264.09,68.65 -107.42,0 -195.58,-22.67 -264.56,-68.2 -68.71,-45.75 -103.07,-104.32 -103.07,-175.53 z m -30.51,0 c 0,104.45 37.29,190.07 111.79,256.77 74.5,66.48 169.9,99.7 286.35,99.7 116.37,0 211.65,-33.22 285.86,-99.7 74.52,-66.7 111.75,-152.32 111.75,-256.77 0,-94.51 -28.43,-171.73 -85.15,-231.7 -36.11,-38.34 -82.26,-68.71 -138.37,-90.96 -56.07,-22.58 -114.12,-33.86 -174.09,-33.86 -116.45,0 -211.85,33.34 -286.35,100.14 -74.5,66.45 -111.79,151.86 -111.79,256.38 v 0"
         style="fill:#ffffff;fill-opacity:1;fill-rule:evenodd;stroke:none"
         transform="matrix(0.13333333,0,0,-0.13333333,0,1107.7067)" />
      <path
         id="path31"
         d="m 361.289,677.531 h 33.695 c 45.547,0 65.368,-11.84 65.368,-67.281 V 297.219 c 0,-55.489 -19.821,-67.379 -65.368,-67.379 H 361.289 V 677.531 Z M 81.9375,27.7695 H 410.82 c 215.938,0 328.871,75.2305 328.871,316.9495 v 122.883 c 0,225.828 -65.367,293.179 -210.011,307.07 v 5.918 c 178.324,35.691 210.011,130.742 210.011,265.53 v 106.93 c 0,215.98 -156.488,285.29 -328.871,285.29 H 81.9375 V 27.7695 Z M 460.352,941.02 c 0,-67.309 -19.821,-89.122 -65.368,-89.122 h -33.695 v 384.412 h 33.695 c 45.547,0 65.368,-21.83 65.368,-89.18 v -206.11 0"
         style="fill:#ffffff;fill-opacity:1;fill-rule:evenodd;stroke:none"
         transform="matrix(0.13333333,0,0,-0.13333333,0,1107.7067)" />
      <path
         id="path32"
         d="M 1592.67,27.7695 V 1438.34 H 1313.33 V 27.7695 h 279.34 v 0"
         style="fill:#ffffff;fill-opacity:1;fill-rule:nonzero;stroke:none"
         transform="matrix(0.13333333,0,0,-0.13333333,0,1107.7067)" />
      <path
         id="path33"
         d="M 2546.63,582.441 V 303.09 c 0,-39.621 -5.93,-93.051 -49.55,-93.051 -43.55,0 -49.51,53.43 -49.51,93.051 v 859.88 c 0,39.62 5.96,93.06 49.51,93.06 43.62,0 49.55,-53.44 49.55,-93.06 V 941.02 h 279.34 v 267.53 c 0,188.15 -156.5,257.54 -328.89,257.54 -172.32,0 -328.85,-69.39 -328.85,-257.54 V 257.602 C 2168.23,69.3516 2324.76,0 2497.08,0 c 172.39,0 328.89,69.3516 328.89,257.602 v 324.839 h -279.34 v 0"
         style="fill:#ffffff;fill-opacity:1;fill-rule:nonzero;stroke:none"
         transform="matrix(0.13333333,0,0,-0.13333333,0,1107.7067)" />
      <path
         id="path34"
         d="m 3754.24,303.09 c 0,-39.621 -5.93,-93.051 -49.53,-93.051 -43.61,0 -49.52,53.43 -49.52,93.051 v 859.88 c 0,39.62 5.91,93.06 49.52,93.06 43.6,0 49.53,-53.44 49.53,-93.06 V 303.09 Z M 3375.85,257.602 C 3375.85,69.3516 3532.35,0 3704.71,0 c 172.37,0 328.86,69.3516 328.86,257.602 v 950.948 c 0,188.15 -156.49,257.54 -328.86,257.54 -172.36,0 -328.86,-69.39 -328.86,-257.54 v -950.948 0"
         style="fill:#ffffff;fill-opacity:1;fill-rule:evenodd;stroke:none"
         transform="matrix(0.13333333,0,0,-0.13333333,0,1107.7067)" />
      <path
         id="path35"
         d="M 4961.86,582.441 V 303.09 c 0,-39.621 -5.99,-93.051 -49.55,-93.051 -43.55,0 -49.54,53.43 -49.54,93.051 v 859.88 c 0,39.62 5.99,93.06 49.54,93.06 43.56,0 49.55,-53.44 49.55,-93.06 V 941.02 h 279.34 v 267.53 c 0,188.15 -156.53,257.54 -328.89,257.54 -172.41,0 -328.87,-69.39 -328.87,-257.54 V 257.602 C 4583.44,69.3516 4739.9,0 4912.31,0 5084.67,0 5241.2,69.3516 5241.2,257.602 v 324.839 h -279.34 v 0"
         style="fill:#ffffff;fill-opacity:1;fill-rule:nonzero;stroke:none"
         transform="matrix(0.13333333,0,0,-0.13333333,0,1107.7067)" />
      <path
         id="path36"
         d="M 6169.44,582.441 V 303.09 c 0,-39.621 -5.96,-93.051 -49.58,-93.051 -43.53,0 -49.48,53.43 -49.48,93.051 v 859.88 c 0,39.62 5.95,93.06 49.48,93.06 43.62,0 49.58,-53.44 49.58,-93.06 V 941.02 h 279.34 v 267.53 c 0,188.15 -156.54,257.54 -328.92,257.54 -172.31,0 -328.81,-69.39 -328.81,-257.54 V 257.602 C 5791.05,69.3516 5947.55,0 6119.86,0 c 172.38,0 328.92,69.3516 328.92,257.602 v 324.839 h -279.34 v 0"
         style="fill:#ffffff;fill-opacity:1;fill-rule:nonzero;stroke:none"
         transform="matrix(0.13333333,0,0,-0.13333333,0,1107.7067)" />
      <path
         id="path37"
         d="m 6953.09,27.7695 h 249.56 l 43.61,384.2895 h 132.73 l 31.75,-384.2895 h 291.15 L 7533.55,1438.34 H 7163.01 L 6953.09,27.7695 Z m 316.95,586.4215 45.61,578.479 h 7.85 l 37.7,-578.479 h -91.16 v 0"
         style="fill:#ffffff;fill-opacity:1;fill-rule:evenodd;stroke:none"
         transform="matrix(0.13333333,0,0,-0.13333333,0,1107.7067)" />
      <path
         id="path38"
         d="M 1651.35,3059.41 2651.41,4548.35 1651.35,5746.54 v 900.75 l 1422.11,-1724.56 2845.9,1793.55 459.38,-386.24 -3049.7,-1916.59 2692.19,-1699.26 95.38,-711.47 -3165.63,1984.12 -1270.5,-1872 -29.13,944.57 z"
         style="fill:none;stroke:#b2b1b1;stroke-width:112.32;stroke-linecap:butt;stroke-linejoin:miter;stroke-miterlimit:3.86369;stroke-dasharray:none;stroke-opacity:1"
         transform="matrix(0.13333333,0,0,-0.13333333,0,1107.7067)" />
      <path
         id="path39"
         d="M 1154.93,7117.1 H 6583.78 V 1688.28 H 1154.93 V 7117.1 Z m 561.5,-4782.39 2829.2,1725.2 -2829.2,2294.07 z M 6022.28,6555.48 H 2359.31 L 4899.03,4496.27 6022.28,6555.48 Z M 5151.46,3766.04 2629.13,2249.97 h 3306.7 l -784.37,1516.07 z m 278.99,676.14 591.83,-1140.98 V 5525.93 L 5430.45,4442.18 v 0"
         style="fill:#b2b1b1;fill-opacity:1;fill-rule:nonzero;stroke:none"
         transform="matrix(0.13333333,0,0,-0.13333333,0,1107.7067)" />
      <path
         id="path40"
         d="M 1154.93,7117.1 H 6583.78 V 1688.28 H 1154.93 V 7117.1 Z m 561.5,-4782.39 2829.2,1725.2 -2829.2,2294.07 z M 6022.28,6555.48 H 2359.31 L 4899.03,4496.27 6022.28,6555.48 Z M 5151.46,3766.04 2629.13,2249.97 h 3306.7 l -784.37,1516.07 z m 278.99,676.14 591.83,-1140.98 V 5525.93 L 5430.45,4442.18 Z"
         style="fill:none;stroke:#b2b1b1;stroke-width:19.0203;stroke-linecap:butt;stroke-linejoin:miter;stroke-miterlimit:4;stroke-dasharray:none;stroke-opacity:1"
         transform="matrix(0.13333333,0,0,-0.13333333,0,1107.7067)" />
      <path
         id="path41"
         d="M 1154.93,7117.1 H 6583.78 V 1688.28 H 1154.93 V 7117.1 Z m 561.5,-4782.39 2829.2,1725.2 -2829.2,2294.07 z M 6022.28,6555.48 H 2359.31 L 4899.03,4496.27 6022.28,6555.48 Z M 5151.46,3766.04 2629.13,2249.97 h 3306.7 l -784.37,1516.07 z m 278.99,676.14 591.83,-1140.98 V 5525.93 L 5430.45,4442.18 Z"
         style="fill:none;stroke:#b2b1b1;stroke-width:112.32;stroke-linecap:butt;stroke-linejoin:miter;stroke-miterlimit:3.86369;stroke-dasharray:none;stroke-opacity:1"
         transform="matrix(0.13333333,0,0,-0.13333333,0,1107.7067)" />
    </g>
  </g>
</svg>
