<svg class="h-8 sm:h-10 w-auto" viewBox="0 0 2401 1482" fill="none" xmlns="http://www.w3.org/2000/svg">
<rect x="382" y="283.673" width="25" height="110" fill="#668B4F"/>
<rect opacity="0.97" x="755.476" y="568.896" width="25" height="131.434" transform="rotate(90.0969 755.476 568.896)" fill="#68955E"/>
<rect x="628.419" y="186.475" width="25" height="117.602" transform="rotate(134.373 628.419 186.475)" fill="#679452"/>
<rect x="849.706" y="200.348" width="25" height="117.602" transform="rotate(130.301 849.706 200.348)" fill="#679452"/>
<rect x="946.911" y="351.95" width="25" height="146.085" transform="rotate(-8.58059 946.911 351.95)" fill="#68955E"/>
<rect opacity="0.97" x="770" y="401.673" width="25" height="179" fill="#F48F24"/>
<rect opacity="0.97" x="772.895" y="346.673" width="25" height="179" transform="rotate(43.8004 772.895 346.673)" fill="#F48F24"/>
<rect x="607.35" y="243.673" width="25" height="111" transform="rotate(42.0529 607.35 243.673)" fill="#18405D"/>
<circle cx="518" cy="85.6735" r="47" fill="#417A8F"/>
<rect x="504" y="130.673" width="25" height="185" fill="#18405D"/>
<circle cx="376" cy="492.673" r="47" fill="#18405D"/>
<circle cx="989" cy="529.673" r="47" fill="#68955E"/>
<circle cx="723" cy="118.673" r="47" fill="#679452"/>
<circle opacity="0.97" cx="878" cy="222.673" r="47" fill="#F48F24"/>
<circle cx="102" cy="356.673" r="47" fill="#417A8F"/>
<circle cx="173" cy="886.673" r="47" fill="#E46A26"/>
<circle opacity="0.97" cx="784" cy="579.673" r="47" fill="#E26928"/>
<circle cx="639" cy="222.673" r="47" fill="#679452"/>
<circle cx="282" cy="147.673" r="47" fill="#417A8F"/>
<circle cx="341" cy="972.673" r="47" fill="#18405D"/>
<circle cx="250" cy="582.673" r="47" fill="#F49028"/>
<rect x="362" y="537.673" width="25" height="179" fill="#18405D"/>
<rect opacity="0.97" x="712.923" y="279.401" width="25" height="296.665" transform="rotate(44.0258 712.923 279.401)" fill="#4C8060"/>
<circle cx="96.885" cy="737.559" r="47" transform="rotate(-91.0894 96.885 737.559)" fill="#18405D"/>
<rect x="141.879" y="748.173" width="25" height="179" transform="rotate(-90 141.879 748.173)" fill="#18405D"/>
<circle cx="394" cy="241.673" r="47" fill="#417A8F"/>
<rect x="490.215" y="108.846" width="25" height="124.235" transform="rotate(42.0529 490.215 108.846)" fill="#417A8F"/>
<rect x="364.237" y="260.517" width="25" height="124.235" transform="rotate(51.0898 364.237 260.517)" fill="#417A8F"/>
<rect x="250.525" y="169.02" width="24.4406" height="194.955" transform="rotate(40.8534 250.525 169.02)" fill="#417A8F"/>
<rect x="271.695" y="182.966" width="24.4406" height="153.31" transform="rotate(12.156 271.695 182.966)" fill="#417A8F"/>
<rect x="718" y="164.087" width="25" height="165.099" transform="rotate(-17.2489 718 164.087)" fill="#679452"/>
<rect x="119.019" y="375.54" width="25" height="111" transform="rotate(-90 119.019 375.54)" fill="#417A8F"/>
<rect x="302.078" y="176.193" width="25" height="111" transform="rotate(-49.4584 302.078 176.193)" fill="#417A8F"/>
<rect x="382" y="393.624" width="25" height="123.309" transform="rotate(-42.6877 382 393.624)" fill="#668B4F"/>
<rect x="296" y="773.673" width="25" height="75" fill="#18405D"/>
<circle opacity="0.97" cx="963.713" cy="364.386" r="47" transform="rotate(-15.2592 963.713 364.386)" fill="#F48F24"/>
<rect opacity="0.97" x="863.952" y="220.673" width="25" height="117.602" transform="rotate(36.0416 863.952 220.673)" fill="#F48F24"/>
<rect x="710.194" y="119.673" width="25" height="117.602" transform="rotate(36.0416 710.194 119.673)" fill="#679452"/>
<rect opacity="0.97" x="936.982" y="350.567" width="25" height="117.602" transform="rotate(90.2371 936.982 350.567)" fill="#F48F24"/>
<rect x="765.608" y="322.133" width="25" height="117.602" transform="rotate(130.553 765.608 322.133)" fill="#679452"/>
<rect x="508.12" y="326.468" width="25" height="117.602" transform="rotate(134.75 508.12 326.468)" fill="#417A8F"/>
<rect x="359.12" y="459.468" width="25" height="117.602" transform="rotate(134.75 359.12 459.468)" fill="#18405D"/>
<circle cx="663.146" cy="472.127" r="47" transform="rotate(43.8004 663.146 472.127)" fill="#193B56"/>
<rect x="621.895" y="494.916" width="25" height="170.181" transform="rotate(43.8004 621.895 494.916)" fill="#193B56"/>
<rect opacity="0.97" x="624.142" y="568.384" width="25" height="110.314" transform="rotate(43.8004 624.142 568.384)" fill="#68955E"/>
<rect x="399.045" y="873.985" width="25" height="184.003" transform="rotate(90.0969 399.045 873.985)" fill="#E46A26"/>
<rect x="278.857" y="753.678" width="25" height="160.675" transform="rotate(44.6196 278.857 753.678)" fill="#E46A26"/>
<rect x="438.531" y="823.896" width="25" height="131.489" transform="rotate(90.0969 438.531 823.896)" fill="#18405D"/>
<rect x="527.181" y="918.6" width="25" height="130.081" transform="rotate(136.866 527.181 918.6)" fill="#18405D"/>
<rect x="484.175" y="959.35" width="25" height="119.662" transform="rotate(135 484.175 959.35)" fill="#E46A26"/>
<rect x="457.879" y="1068.22" width="25" height="119.662" transform="rotate(133.615 457.879 1068.22)" fill="#18405D"/>
<rect x="459" y="467.673" width="25" height="841" fill="#668B4F"/>
<rect x="433.787" y="1068.75" width="25" height="237.204" fill="#18405D"/>
<rect x="503.537" y="402.723" width="25" height="918.953" fill="#18405D"/>
<rect opacity="0.97" x="548" y="647.673" width="25" height="683" fill="#68955E"/>
<circle cx="55.4169" cy="509.09" r="47" transform="rotate(-11.4847 55.4169 509.09)" fill="#18405D"/>
<rect x="50.657" y="555.977" width="25" height="179" transform="rotate(-11.4847 50.657 555.977)" fill="#18405D"/>
<rect x="80" y="543.831" width="25" height="274.924" transform="rotate(-46.5773 80 543.831)" fill="#18405D"/>
<rect x="273.918" y="623.932" width="25" height="278.741" transform="rotate(-43.389 273.918 623.932)" fill="#F49028"/>
<rect x="953.99" y="544.228" width="25" height="328.274" transform="rotate(39.09 953.99 544.228)" fill="#68955E"/>
<rect x="458.395" y="740.675" width="25" height="568.036" fill="#F49028"/>
<circle cx="247" cy="368.673" r="47" fill="#417A8F"/>
<rect x="233" y="413.673" width="25" height="179" fill="#F49028"/>
<rect x="94.2109" y="516.402" width="25" height="249.689" transform="rotate(-89.7262 94.2109 516.402)" fill="#18405D"/>
<circle opacity="0.97" cx="784" cy="356.673" r="47" fill="#F48F24"/>
<circle cx="516" cy="357.673" r="47" fill="#18405D"/>
<rect x="369" y="656.858" width="25" height="188.982" transform="rotate(-46.6664 369 656.858)" fill="#18405D"/>
<circle cx="310" cy="728.673" r="47" fill="#18405D"/>
<path d="M1892 1404.67H1397L1506 1378.67L1579 1360.67L1648 1342.67L1715 1320.67L1777 1300.67L1840 1278.67L1892 1258.67V1404.67Z" fill="#1B425D" stroke="#1B425D"/>
<path d="M1955.93 1404.67L1951 1235.67L1995.35 1216.67L2037.72 1195.67L2077.14 1176.67L2117.55 1155.67L2157.96 1131.67L2194.42 1109.67L2223 1086.67V1147.67L2218.07 1210.67L2212.16 1273.67L2205.26 1339.67L2199.35 1404.67H1955.93Z" fill="#1B425D" stroke="#1B425D"/>
<path d="M2047 5.17346L2051.5 0.673462L2057 5.17346V17.6735V163.173L2069 168.173V282.173L2102 298.173L2123 304.173L2146 315.173L2163 324.173L2173 336.173L2163 341.173V352.173V372.173L2173 378.173H2186L2194 384.173L2202 434.173L2210 508.173L2215 604.173L2220 762.173V943.173L2125 1008.17L2054 1049.17L1948 1102.17V847.173V532.173V492.673V460.673V413.673L1952 365.673L1958.5 352.173H1987V282.173V272.173L1993 269.173H2002.5L2015.5 272.173L2029 275.173H2037V168.173H2041.5L2044.5 163.173L2047 17.6735V5.17346Z" fill="#1B425D" stroke="#1B425D"/>
<path d="M1505.35 307.471L1505.47 307.612L1572.9 385.173H1398.09L1464.58 307.61L1464.7 307.469V179.298C1470.46 180.855 1477.47 181.766 1485.03 181.766C1492.58 181.766 1499.59 180.855 1505.35 179.298V307.471ZM1485.03 154.975C1492.63 154.975 1499.65 155.907 1505.35 157.479V178.261C1499.65 179.834 1492.63 180.766 1485.03 180.766C1477.42 180.766 1470.41 179.834 1464.7 178.261V157.479C1470.41 155.907 1477.42 154.975 1485.03 154.975ZM1463.7 177.975C1462.56 177.634 1461.47 177.267 1460.44 176.876C1457.31 175.676 1454.8 174.26 1453.09 172.714C1451.38 171.167 1450.5 169.53 1450.5 167.871C1450.5 166.212 1451.38 164.574 1453.09 163.027C1454.8 161.48 1457.31 160.065 1460.44 158.866C1461.47 158.474 1462.56 158.106 1463.7 157.765V177.975ZM1506.35 157.765C1507.5 158.106 1508.59 158.474 1509.61 158.866C1512.75 160.065 1515.25 161.48 1516.96 163.027C1518.67 164.574 1519.55 166.212 1519.55 167.871C1519.55 169.53 1518.67 171.167 1516.96 172.714C1515.25 174.26 1512.75 175.676 1509.61 176.876C1508.59 177.267 1507.5 177.634 1506.35 177.975V157.765ZM1505.35 129.176V156.442C1499.59 154.885 1492.58 153.975 1485.03 153.975C1477.47 153.975 1470.46 154.885 1464.7 156.442V129.176H1505.35ZM1489.59 74.108V80.111L1489.6 80.1725L1501.98 128.176H1468.07L1480.92 80.1774L1480.94 80.1139V74.108H1489.59ZM1489.04 73.108H1481.68V72.2399C1482.68 72.3377 1483.72 72.3912 1484.78 72.3912C1486.26 72.3912 1487.69 72.2905 1489.04 72.1051V73.108ZM1489.04 69.9108V71.0963C1487.7 71.2871 1486.27 71.3912 1484.78 71.3912C1483.72 71.3912 1482.68 71.3357 1481.68 71.235V69.9108H1489.04ZM1480.68 68.9108H1479.94V71.0065C1477.97 70.681 1476.2 70.1634 1474.76 69.5074C1472.17 68.3312 1470.81 66.8083 1470.81 65.3063C1470.81 63.8042 1472.17 62.2814 1474.76 61.1051C1476.38 60.3683 1478.4 59.8061 1480.68 59.4948V68.9108ZM1490.04 59.6783C1491.85 60.0059 1493.47 60.4953 1494.81 61.1051C1497.39 62.2814 1498.75 63.8042 1498.75 65.3063C1498.75 66.8083 1497.39 68.3312 1494.81 69.5074C1493.61 70.0547 1492.18 70.5032 1490.59 70.8268V68.9108H1490.04V59.6783ZM1484.78 59.2213C1486.27 59.2213 1487.7 59.3244 1489.04 59.5153V68.9108H1481.68V59.3766C1482.68 59.2759 1483.72 59.2213 1484.78 59.2213ZM1481.68 48.8668L1481.64 48.7731L1477.89 39.9274L1474.58 29.1813V20.9449L1476.23 15.1012L1476.25 15.0338V4.32581L1479.31 1.17346H1483.83L1485.7 4.26233V6.40198L1483.73 8.72815L1483.7 8.76428L1483.67 8.8053L1482 11.7623L1481.94 11.8766V16.6266L1482.05 16.7662L1485.81 21.2018L1485.84 21.2291L1485.87 21.2526L1489.1 24.1158L1490.71 29.3326V45.8785L1489.1 48.7223L1489.04 48.8365V58.5065C1487.69 58.321 1486.26 58.2213 1484.78 58.2213C1483.72 58.2213 1482.68 58.2729 1481.68 58.3707V48.8668Z" fill="#1B425D" stroke="#1B425D"/>
<path d="M1629 550.173V568.673H1594V236.673H1598.5V242.173L1601 244.673V256.173H1598.5V266.173H1601V272.173H1598.5L1605 381.673L1609 385.173L1616 424.673L1621 550.173H1629Z" fill="#1B425D"/>
<path d="M1559 550.173V568.673H1594V236.673H1589.5V242.173L1587 244.673V256.173H1589.5V266.173H1587V272.173H1589.5L1583 381.673L1579 385.173L1572 424.673L1567 550.173H1559Z" fill="#1B425D"/>
<path d="M1594 236.673H1598.5V242.173L1601 244.673V256.173H1598.5V266.173H1601V272.173H1598.5L1605 381.673L1609 385.173L1616 424.673L1621 550.173H1629V568.673H1594M1594 236.673V568.673M1594 236.673H1589.5V242.173L1587 244.673V256.173H1589.5V266.173H1587V272.173H1589.5L1583 381.673L1579 385.173L1572 424.673L1567 550.173H1559V568.673H1594" stroke="#1B425D"/>
<path d="M1001 784.173V802.673H966V470.673H970.5V476.173L973 478.673V490.173H970.5V500.173H973V506.173H970.5L977 615.673L981 619.173L988 658.673L993 784.173H1001Z" fill="#1B425D"/>
<path d="M931 784.173V802.673H966V470.673H961.5V476.173L959 478.673V490.173H961.5V500.173H959V506.173H961.5L955 615.673L951 619.173L944 658.673L939 784.173H931Z" fill="#1B425D"/>
<path d="M966 470.673H970.5V476.173L973 478.673V490.173H970.5V500.173H973V506.173H970.5L977 615.673L981 619.173L988 658.673L993 784.173H1001V802.673H966M966 470.673V802.673M966 470.673H961.5V476.173L959 478.673V490.173H961.5V500.173H959V506.173H961.5L955 615.673L951 619.173L944 658.673L939 784.173H931V802.673H966" stroke="#1B425D"/>
<path d="M1047 908.173V926.673H1012V594.673H1016.5V600.173L1019 602.673V614.173H1016.5V624.173H1019V630.173H1016.5L1023 739.673L1027 743.173L1034 782.673L1039 908.173H1047Z" fill="#1B425D"/>
<path d="M977 908.173V926.673H1012V594.673H1007.5V600.173L1005 602.673V614.173H1007.5V624.173H1005V630.173H1007.5L1001 739.673L997 743.173L990 782.673L985 908.173H977Z" fill="#1B425D"/>
<path d="M1012 594.673H1016.5V600.173L1019 602.673V614.173H1016.5V624.173H1019V630.173H1016.5L1023 739.673L1027 743.173L1034 782.673L1039 908.173H1047V926.673H1012M1012 594.673V926.673M1012 594.673H1007.5V600.173L1005 602.673V614.173H1007.5V624.173H1005V630.173H1007.5L1001 739.673L997 743.173L990 782.673L985 908.173H977V926.673H1012" stroke="#1B425D"/>
<path d="M1071 976.173V994.673H1036V662.673H1040.5V668.173L1043 670.673V682.173H1040.5V692.173H1043V698.173H1040.5L1047 807.673L1051 811.173L1058 850.673L1063 976.173H1071Z" fill="#1B425D"/>
<path d="M1001 976.173V994.673H1036V662.673H1031.5V668.173L1029 670.673V682.173H1031.5V692.173H1029V698.173H1031.5L1025 807.673L1021 811.173L1014 850.673L1009 976.173H1001Z" fill="#1B425D"/>
<path d="M1036 662.673H1040.5V668.173L1043 670.673V682.173H1040.5V692.173H1043V698.173H1040.5L1047 807.673L1051 811.173L1058 850.673L1063 976.173H1071V994.673H1036M1036 662.673V994.673M1036 662.673H1031.5V668.173L1029 670.673V682.173H1031.5V692.173H1029V698.173H1031.5L1025 807.673L1021 811.173L1014 850.673L1009 976.173H1001V994.673H1036" stroke="#1B425D"/>
<path d="M1186 634.173V652.673H1151V320.673H1155.5V326.173L1158 328.673V340.173H1155.5V350.173H1158V356.173H1155.5L1162 465.673L1166 469.173L1173 508.673L1178 634.173H1186Z" fill="#1B425D"/>
<path d="M1116 634.173V652.673H1151V320.673H1146.5V326.173L1144 328.673V340.173H1146.5V350.173H1144V356.173H1146.5L1140 465.673L1136 469.173L1129 508.673L1124 634.173H1116Z" fill="#1B425D"/>
<path d="M1151 320.673H1155.5V326.173L1158 328.673V340.173H1155.5V350.173H1158V356.173H1155.5L1162 465.673L1166 469.173L1173 508.673L1178 634.173H1186V652.673H1151M1151 320.673V652.673M1151 320.673H1146.5V326.173L1144 328.673V340.173H1146.5V350.173H1144V356.173H1146.5L1140 465.673L1136 469.173L1129 508.673L1124 634.173H1116V652.673H1151" stroke="#1B425D"/>
<path d="M931 766.173V784.673H896V452.673H900.5V458.173L903 460.673V472.173H900.5V482.173H903V488.173H900.5L907 597.673L911 601.173L918 640.673L923 766.173H931Z" fill="#1B425D"/>
<path d="M861 766.173V784.673H896V452.673H891.5V458.173L889 460.673V472.173H891.5V482.173H889V488.173H891.5L885 597.673L881 601.173L874 640.673L869 766.173H861Z" fill="#1B425D"/>
<path d="M896 452.673H900.5V458.173L903 460.673V472.173H900.5V482.173H903V488.173H900.5L907 597.673L911 601.173L918 640.673L923 766.173H931V784.673H896M896 452.673V784.673M896 452.673H891.5V458.173L889 460.673V472.173H891.5V482.173H889V488.173H891.5L885 597.673L881 601.173L874 640.673L869 766.173H861V784.673H896" stroke="#1B425D"/>
<path d="M1407 550.173V568.673H1372V236.673H1376.5V242.173L1379 244.673V256.173H1376.5V266.173H1379V272.173H1376.5L1383 381.673L1387 385.173L1394 424.673L1399 550.173H1407Z" fill="#1B425D"/>
<path d="M1337 550.173V568.673H1372V236.673H1367.5V242.173L1365 244.673V256.173H1367.5V266.173H1365V272.173H1367.5L1361 381.673L1357 385.173L1350 424.673L1345 550.173H1337Z" fill="#1B425D"/>
<path d="M1372 236.673H1376.5V242.173L1379 244.673V256.173H1376.5V266.173H1379V272.173H1376.5L1383 381.673L1387 385.173L1394 424.673L1399 550.173H1407V568.673H1372M1372 236.673V568.673M1372 236.673H1367.5V242.173L1365 244.673V256.173H1367.5V266.173H1365V272.173H1367.5L1361 381.673L1357 385.173L1350 424.673L1345 550.173H1337V568.673H1372" stroke="#1B425D"/>
<path d="M1274 634.173V652.673H1239V320.673H1243.5V326.173L1246 328.673V340.173H1243.5V350.173H1246V356.173H1243.5L1250 465.673L1254 469.173L1261 508.673L1266 634.173H1274Z" fill="#1B425D"/>
<path d="M1204 634.173V652.673H1239V320.673H1234.5V326.173L1232 328.673V340.173H1234.5V350.173H1232V356.173H1234.5L1228 465.673L1224 469.173L1217 508.673L1212 634.173H1204Z" fill="#1B425D"/>
<path d="M1239 320.673H1243.5V326.173L1246 328.673V340.173H1243.5V350.173H1246V356.173H1243.5L1250 465.673L1254 469.173L1261 508.673L1266 634.173H1274V652.673H1239M1239 320.673V652.673M1239 320.673H1234.5V326.173L1232 328.673V340.173H1234.5V350.173H1232V356.173H1234.5L1228 465.673L1224 469.173L1217 508.673L1212 634.173H1204V652.673H1239" stroke="#1B425D"/>
<path d="M1347 550.173V568.673H1312V236.673H1316.5V242.173L1319 244.673V256.173H1316.5V266.173H1319V272.173H1316.5L1323 381.673L1327 385.173L1334 424.673L1339 550.173H1347Z" fill="#1B425D"/>
<path d="M1277 550.173V568.673H1312V236.673H1307.5V242.173L1305 244.673V256.173H1307.5V266.173H1305V272.173H1307.5L1301 381.673L1297 385.173L1290 424.673L1285 550.173H1277Z" fill="#1B425D"/>
<path d="M1312 236.673H1316.5V242.173L1319 244.673V256.173H1316.5V266.173H1319V272.173H1316.5L1323 381.673L1327 385.173L1334 424.673L1339 550.173H1347V568.673H1312M1312 236.673V568.673M1312 236.673H1307.5V242.173L1305 244.673V256.173H1307.5V266.173H1305V272.173H1307.5L1301 381.673L1297 385.173L1290 424.673L1285 550.173H1277V568.673H1312" stroke="#1B425D"/>
<path d="M1675 562.173V580.673H1640V248.673H1644.5V254.173L1647 256.673V268.173H1644.5V278.173H1647V284.173H1644.5L1651 393.673L1655 397.173L1662 436.673L1667 562.173H1675Z" fill="#1B425D"/>
<path d="M1605 562.173V580.673H1640V248.673H1635.5V254.173L1633 256.673V268.173H1635.5V278.173H1633V284.173H1635.5L1629 393.673L1625 397.173L1618 436.673L1613 562.173H1605Z" fill="#1B425D"/>
<path d="M1640 248.673H1644.5V254.173L1647 256.673V268.173H1644.5V278.173H1647V284.173H1644.5L1651 393.673L1655 397.173L1662 436.673L1667 562.173H1675V580.673H1640M1640 248.673V580.673M1640 248.673H1635.5V254.173L1633 256.673V268.173H1635.5V278.173H1633V284.173H1635.5L1629 393.673L1625 397.173L1618 436.673L1613 562.173H1605V580.673H1640" stroke="#1B425D"/>
<path d="M1763 618.173V636.673H1728V304.673H1732.5V310.173L1735 312.673V324.173H1732.5V334.173H1735V340.173H1732.5L1739 449.673L1743 453.173L1750 492.673L1755 618.173H1763Z" fill="#1B425D"/>
<path d="M1693 618.173V636.673H1728V304.673H1723.5V310.173L1721 312.673V324.173H1723.5V334.173H1721V340.173H1723.5L1717 449.673L1713 453.173L1706 492.673L1701 618.173H1693Z" fill="#1B425D"/>
<path d="M1728 304.673H1732.5V310.173L1735 312.673V324.173H1732.5V334.173H1735V340.173H1732.5L1739 449.673L1743 453.173L1750 492.673L1755 618.173H1763V636.673H1728M1728 304.673V636.673M1728 304.673H1723.5V310.173L1721 312.673V324.173H1723.5V334.173H1721V340.173H1723.5L1717 449.673L1713 453.173L1706 492.673L1701 618.173H1693V636.673H1728" stroke="#1B425D"/>
<path d="M1851 634.173V652.673H1816V320.673H1820.5V326.173L1823 328.673V340.173H1820.5V350.173H1823V356.173H1820.5L1827 465.673L1831 469.173L1838 508.673L1843 634.173H1851Z" fill="#1B425D"/>
<path d="M1781 634.173V652.673H1816V320.673H1811.5V326.173L1809 328.673V340.173H1811.5V350.173H1809V356.173H1811.5L1805 465.673L1801 469.173L1794 508.673L1789 634.173H1781Z" fill="#1B425D"/>
<path d="M1816 320.673H1820.5V326.173L1823 328.673V340.173H1820.5V350.173H1823V356.173H1820.5L1827 465.673L1831 469.173L1838 508.673L1843 634.173H1851V652.673H1816M1816 320.673V652.673M1816 320.673H1811.5V326.173L1809 328.673V340.173H1811.5V350.173H1809V356.173H1811.5L1805 465.673L1801 469.173L1794 508.673L1789 634.173H1781V652.673H1816" stroke="#1B425D"/>
<path d="M1012 760.673H858V1330.67H899H958L1012 1324.67V760.673Z" fill="#1B425D" stroke="#1B425D"/>
<path d="M1573 385.673H1399L1360 465.673L1122 709.673L960 849.673V1330.67L1057 1321.67L1138 1311.67L1206 1302.67L1283 1289.67L1358 1276.67L1412 1265.67L1491 1247.67L1567 1229.67L1632 1210.67L1726 1179.67L1823 1143.67L1885 1113.67V885.673L1851 849.673V709.673L1603 465.673L1573 385.673Z" fill="#1B425D" stroke="#1B425D"/>
<rect x="1116.5" y="637.173" width="69" height="83" fill="#1B425D" stroke="#1B425D"/>
<rect x="1781.5" y="637.173" width="69" height="83" fill="#1B425D" stroke="#1B425D"/>
<path d="M629 1303.67V1303.17V895.673L648.5 876.173V649.673H799V1331.67H666L642 1329.17L629 1325.67V1303.67Z" fill="#1B425D"/>
<path d="M629 1303.17V1326.17M629 1325.67L642 1329.17L666 1331.67H799V649.673H648.5V876.173L629 895.673V1303.67" stroke="#1B425D"/>
<path id="orange-arc" fill-rule="evenodd" clip-rule="evenodd" d="M2266.74 712.673C2339.93 743.995 2386.13 786.489 2397.38 839.29C2438.51 1032.32 1996.88 1290 1410.99 1414.84C825.088 1539.67 316.783 1484.38 275.655 1291.35C267.45 1252.84 278.458 1211.76 305.992 1169.67C299.771 1189.84 298.476 1209.5 302.51 1228.44C340.033 1404.55 824.41 1450.59 1384.4 1331.28C1944.38 1211.97 2367.93 972.481 2330.4 796.371C2323.51 764.006 2301.52 736.034 2266.74 712.673Z" fill="#D15B22" stroke="#D15B22" stroke-width="2"/>
</svg>
